<?xml version="1.0" encoding="UTF-8" standalone="no"?>
<svg
   xmlns:dc="http://purl.org/dc/elements/1.1/"
   xmlns:cc="http://creativecommons.org/ns#"
   xmlns:rdf="http://www.w3.org/1999/02/22-rdf-syntax-ns#"
   xmlns:svg="http://www.w3.org/2000/svg"
   xmlns="http://www.w3.org/2000/svg"
   xmlns:sodipodi="http://sodipodi.sourceforge.net/DTD/sodipodi-0.dtd"
   xmlns:inkscape="http://www.inkscape.org/namespaces/inkscape"
   id="svg"
   version="1.1"
   width="2912.5232"
   height="2903.5764"
   viewBox="0 0 2912.5233 2903.5765"
   sodipodi:docname="signati.svg"
   inkscape:version="0.92.4 5da689c313, 2019-01-14"
   inkscape:export-filename="/home/misael/Documentos/misproyectos/signati/signati-core/signati.svg.png"
   inkscape:export-xdpi="96"
   inkscape:export-ydpi="96">
  <metadata
     id="metadata116">
    <rdf:RDF>
      <cc:Work
         rdf:about="">
        <dc:format>image/svg+xml</dc:format>
        <dc:type
           rdf:resource="http://purl.org/dc/dcmitype/StillImage" />
      </cc:Work>
    </rdf:RDF>
  </metadata>
  <defs
     id="defs114" />
  <sodipodi:namedview
     pagecolor="#ffffff"
     bordercolor="#666666"
     borderopacity="1"
     objecttolerance="10"
     gridtolerance="10"
     guidetolerance="10"
     inkscape:pageopacity="0"
     inkscape:pageshadow="2"
     inkscape:window-width="1366"
     inkscape:window-height="692"
     id="namedview112"
     showgrid="false"
     showguides="false"
     inkscape:zoom="0.083932238"
     inkscape:cx="1194.9731"
     inkscape:cy="1224.3281"
     inkscape:window-x="0"
     inkscape:window-y="0"
     inkscape:window-maximized="1"
     inkscape:current-layer="g468" />
  <g
     id="g197"
     transform="matrix(1.8362985,0,0,1.8362985,-241.9549,227.3419)">
    <g
       id="g236"
       transform="translate(107.05621,-9.7323827)">
      <g
         id="g175">
        <g
           id="g468"
           transform="translate(18.351557,-119.28512)">
          <g
             id="g485">
            <path
               transform="matrix(0.54457377,0,0,0.54457377,-4.6679859e-5,-238.57024)"
               style="fill:#165016;fill-rule:evenodd;stroke:none;stroke-width:6.70113659"
               d="m 1902.4931,3130.1849 -0.5629,-0.5628 c 0,0.081 0.1049,0.1332 0.1049,0.2088 0,0.351 0.3924,0.071 0.458,0.353 z"
               id="path890"
               inkscape:connector-curvature="0" />
            <path
               style="fill:#165016;fill-rule:evenodd;stroke:none;stroke-width:6.70113659"
               d="m 239.78698,473.93778 -0.39236,-0.41878 c -0.0403,0.0807 0.1513,0.22512 0.1049,0.30087 -0.117,0.18831 0.35705,-0.0403 0.28847,0.11791 z"
               id="path1032"
               inkscape:connector-curvature="0" />
            <path
               style="fill:#330080;fill-rule:evenodd;stroke:none;stroke-width:6.70113659"
               d="m 1437.4102,958.77969 c 18.7052,-0.0101 37.8729,-0.79278 57.3192,-1.75068 34.2379,-1.65824 72.8697,-25.24994 84.9225,-53.81797 6.9053,-17.13559 9.9093,-34.86404 10.1611,-48.14202 1.1135,-40.93913 3.4868,-74.43257 2.3024,-115.44811 -1.216,-28.7055 -6.1148,-60.53594 -25.5983,-81.19213 -13.1646,-11.92721 -35.1352,-20.14382 -50.949,-22.77238 -162.2684,-3.79864 -324.6096,-7.14875 -486.9062,-10.65247 0.344,0.48888 0.4449,1.06256 0.7747,1.54222 l 429.9314,9.28117 c 20.211,1.72827 42.2251,11.22394 56.2384,25.73597 8.6447,8.35997 14.3327,14.60713 17.6917,23.28816 10.2962,30.5338 4.6846,51.79944 4.915,85.17499 -0.1876,11.29769 -0.6217,25.06365 -0.7988,31.45114 -0.1594,18.53436 -0.7597,37.11015 -1.0742,53.96312 0.8878,17.12723 -5.3208,34.42909 -10.1621,48.14212 -5.5551,13.73737 -16.0797,25.59198 -25.2985,32.35638 -22.1915,18.70415 -42.9351,17.83817 -69.6122,22.84261 z"
               id="path1070-7-9-2-0-2"
               inkscape:connector-curvature="0"
               sodipodi:nodetypes="ccccccccccccccccccc" />
            <path
               style="fill:#d45500;fill-rule:evenodd;stroke:none;stroke-width:6.70113659"
               d="m 1363.8298,462.92134 c 13.4407,-13.00883 26.677,-26.89458 39.9918,-41.09994 23.4622,-24.99019 34.8379,-68.80318 23.646,-97.71935 -6.9461,-17.11909 -17.1091,-31.95269 -26.1573,-41.67371 -27.6553,-30.20651 -49.2296,-55.93572 -78.5902,-84.59994 -20.8268,-19.79216 -46.4733,-39.2711 -74.8383,-40.57899 -17.7549,0.57555 -39.2615,9.93963 -52.4576,19.04169 -119.3007,110.05824 -238.34188,220.48955 -357.45779,330.77939 0.58712,0.11237 1.05841,0.45467 1.62892,0.57028 L 1155.1388,215.47744 c 15.7317,-12.80571 38.1586,-21.28047 58.3203,-20.58761 12.0258,0.002 20.4573,0.53922 28.9062,4.44554 28.6257,14.79513 39.3726,33.98424 62.7369,57.81891 7.7179,8.2527 16.9742,18.45125 21.2867,23.16653 12.7682,13.43578 25.2482,27.20781 36.7363,39.54259 12.543,11.69626 20.1056,28.45062 26.1566,41.67447 5.5548,13.73749 6.2282,29.5756 4.3023,40.84654 -2.9534,28.87188 -18.4686,42.66772 -34.1692,64.80825 z"
               id="path1070-7-9-2-0-2-7"
               inkscape:connector-curvature="0"
               sodipodi:nodetypes="ccccccccccccccccccc" />
            <path
               style="fill:#006680;fill-opacity:1;fill-rule:evenodd;stroke:none;stroke-width:6.70113659"
               d="m 961.08143,160.35882 c 0.001,-18.70514 -0.77015,-37.87331 -1.7164,-57.32018 C 957.7273,68.799739 934.15877,30.153779 905.59793,18.083915 888.46648,11.168338 870.73983,8.1537464 857.462,7.8939794 816.52358,6.7559194 783.03158,4.3625524 742.01528,5.5224554 713.30904,6.7212664 681.47571,11.600963 660.80787,31.072072 648.87273,44.229584 640.64296,66.195257 638.00495,82.007451 634.10911,244.27359 630.66181,406.61272 627.06089,568.90714 c 0.48909,-0.3437 1.06282,-0.44426 1.54269,-0.77377 l 9.53862,-429.92571 c 1.7404,-20.20998 11.24923,-42.21838 25.7697,-56.22303 8.36548,-8.639361 14.61567,-14.323903 23.29871,-17.677709 30.53998,-10.277936 51.80226,-4.653585 85.17797,-4.864034 11.29757,0.194375 25.06326,0.636744 31.45065,0.817654 18.53424,0.170521 37.10964,0.781984 53.96247,1.106524 17.12773,-0.877527 34.42589,5.341418 48.13598,10.190961 13.73404,5.563319 25.58236,16.09501 32.34125,25.317839 18.69085,22.202715 17.81245,42.945785 22.80092,69.625875 z"
               id="path1070-7-9-2-0-2-7-5"
               inkscape:connector-curvature="0"
               sodipodi:nodetypes="ccccccccccccccccccc" />
            <path
               style="fill:#008000;fill-opacity:1;fill-rule:evenodd;stroke:none;stroke-width:6.70113659"
               d="m 467.31093,235.66584 c -12.61832,-13.80798 -26.11898,-27.43682 -39.93691,-41.15327 -24.30751,-24.16878 -67.77649,-36.79546 -97.00154,-26.43689 -17.31114,6.45262 -32.4299,16.18633 -42.40625,24.95222 -30.98669,26.77824 -57.32363,47.60628 -86.81755,76.13331 -20.38091,20.25102 -40.58687,45.32873 -42.70715,73.6446 0.0665,17.76409 8.81033,39.53023 17.53047,52.98177 106.59394,122.40592 213.56824,244.56312 320.39897,366.79095 0.12917,-0.58368 0.48482,-1.04495 0.61673,-1.61192 L 213.98768,437.17949 c -12.34959,-16.09224 -20.17811,-38.75279 -18.90773,-58.88638 0.34666,-12.02078 1.1253,-20.43344 5.27216,-28.76691 15.60945,-28.18992 35.09867,-38.38246 59.59316,-61.05408 8.4705,-7.4782 18.93016,-16.43841 23.76709,-20.614 13.79619,-12.3779 27.92024,-24.45807 40.57919,-35.58794 12.05093,-12.20264 29.01515,-19.28196 42.40698,-24.9515 13.89105,-5.15879 29.74196,-5.378 40.95307,-3.12987 28.77539,3.77965 42.12089,19.68384 63.80237,36.01254 z"
               id="path1070-7-9-2-0-2-7-5-3"
               inkscape:connector-curvature="0"
               sodipodi:nodetypes="ccccccccccccccccccc" />
            <path
               style="fill:#d4aa00;fill-opacity:1;fill-rule:evenodd;stroke:none;stroke-width:6.70113659"
               d="m 155.3158,636.02023 c -18.69443,0.63278 -37.82546,2.05298 -57.229106,3.6576 -34.163757,2.79691 -71.988945,27.66135 -83.08415,56.61475 -6.331146,17.35594 -8.743371,35.17456 -8.553086,48.45358 0.249721,40.95346 -1.007453,74.50731 1.541528,115.46077 2.17079,28.64914 8.126296,60.29885 28.28652,80.29509 13.55437,11.48243 35.786262,18.9632 51.678769,21.064 162.304965,-1.6045 324.667725,-3.6597 486.990955,-5.55995 -0.3601,-0.4772 -0.47998,-1.04713 -0.8256,-1.51558 l -430.00207,5.03413 c -20.25735,-1.0547 -42.57527,-9.81233 -57.063917,-23.84994 -8.917826,-8.06794 -14.810896,-14.12194 -18.456979,-22.68636 -11.306827,-30.17419 -6.406148,-51.61483 -7.747349,-84.96425 -0.188535,-11.29766 -0.212838,-25.07043 -0.248455,-31.46029 -0.457589,-18.52937 -0.475863,-37.11482 -0.722539,-53.96896 -1.45736,-17.08817 4.171894,-34.58711 8.554102,-48.45366 5.094789,-13.91465 15.218979,-26.11302 24.207498,-33.18052 21.556679,-19.43242 42.317579,-19.25736 68.813339,-25.14697 z"
               id="path1070-7-9-2-0-2-7-5-3-5"
               inkscape:connector-curvature="0"
               sodipodi:nodetypes="ccccccccccccccccccc" />
            <path
               style="fill:#800000;fill-opacity:1;fill-rule:evenodd;stroke:none;stroke-width:6.70113659"
               d="m 227.03366,1133.4989 c -12.99165,13.4573 -25.7493,27.784 -38.57447,42.433 -22.60092,25.7717 -32.4838,69.9454 -20.31741,98.4651 7.52292,16.8737 18.18327,31.354 27.55604,40.7624 28.66413,29.251 51.09882,54.2335 81.41494,81.8852 21.48632,19.0743 47.77884,37.672 76.17188,38.0168 17.72513,-1.1775 38.90167,-11.2658 51.78144,-20.8103 115.49839,-114.042 230.7248,-228.4482 346.03063,-342.7155 -0.59061,-0.092 -1.07325,-0.4185 -1.6473,-0.5146 l -305.45047,302.6998 c -15.28828,13.3319 -37.41471,22.5626 -57.58834,22.5541 -12.01897,0.4059 -20.46385,0.1551 -29.04037,-3.4623 -29.11114,-13.8156 -40.5029,-32.6291 -64.66228,-55.6574 -7.99347,-7.9861 -17.59035,-17.8647 -22.06037,-22.4311 -13.21663,-12.9948 -26.15667,-26.3356 -38.05656,-38.2735 -12.93261,-11.2641 -21.05919,-27.7522 -27.55538,-40.7632 -6.01765,-13.5411 -7.2279,-29.3472 -5.68545,-40.6771 1.97226,-28.9553 17.01047,-43.2697 31.95093,-65.9301 z"
               id="path1070-7-9-2-0-2-7-5-3-5-6"
               inkscape:connector-curvature="0"
               sodipodi:nodetypes="ccccccccccccccccccc" />
            <path
               style="fill:#d40055;fill-opacity:1;fill-rule:evenodd;stroke:none;stroke-width:6.70113659"
               d="m 640.1973,1433.4352 c 0.20822,18.7039 1.19372,37.8622 2.3576,57.2974 2.02066,34.2184 26.02002,72.5983 54.714,84.3478 17.20784,6.7235 34.96711,9.5396 48.24697,9.6508 40.94863,0.68 74.46529,2.6985 115.46607,1.0797 28.69112,-1.5199 60.46784,-6.7554 80.91648,-26.4566 11.78719,-13.2901 19.77071,-35.3465 22.23167,-51.1873 2.08036,-162.2995 3.71119,-324.6671 5.49618,-486.9916 -0.48494,0.3494 -1.05774,0.4561 -1.53383,0.791 l -4.72821,430.0056 c -1.51431,20.2281 -10.77626,42.3415 -25.13918,56.5078 -8.26838,8.7322 -14.45453,14.4865 -23.09944,17.9372 -30.42315,10.6188 -51.74709,5.2328 -85.1183,5.8166 -11.29906,-0.068 -25.06871,-0.3562 -31.45786,-0.4657 -18.53491,0.037 -37.11608,-0.3631 -53.97138,-0.5026 -17.11694,1.0691 -34.48351,-4.9558 -48.24707,-9.6518 -13.79541,-5.4092 -25.76073,-15.8077 -32.62245,-24.9545 -18.93794,-21.9921 -18.29182,-42.7438 -23.57844,-69.3664 z"
               id="path1070-7-9-2-0-2-7-5-3-5-6-2"
               inkscape:connector-curvature="0"
               sodipodi:nodetypes="ccccccccccccccccccc" />
            <path
               style="fill:#8800aa;fill-opacity:1;fill-rule:evenodd;stroke:none;stroke-width:6.70113659"
               d="m 1132.6537,1361.5115 c 13.179,13.2739 27.2321,26.3323 41.6062,39.4651 25.2869,23.1418 69.2412,33.9587 98.0124,22.3993 17.0292,-7.1636 31.7322,-17.5147 41.3372,-26.6859 29.8518,-28.038 55.3041,-49.9382 83.5919,-79.6617 19.5253,-21.0772 38.6759,-46.9698 39.6223,-75.3492 -0.8016,-17.746 -10.4388,-39.1316 -19.7084,-52.2108 -20.9897,-22.1787 -41.9925,-44.3481 -63.0049,-66.5103 -90.6775,-95.6395 -181.5355,-191.14692 -272.3009,-286.70484 -0.1049,0.5884 -0.4412,1.06404 -0.5494,1.63597 l 296.1591,311.79627 c 13.0049,15.5673 21.7647,37.8845 21.3289,58.0534 0.1512,12.0248 -0.2787,20.4625 -4.0771,28.9604 -14.4294,28.8118 -33.48,39.8023 -57.0152,63.4683 -8.1537,7.8224 -18.2333,17.2078 -22.8935,21.5802 -13.2718,12.9383 -26.8814,25.5954 -39.0712,37.2371 -11.5356,12.6909 -28.1921,20.4664 -41.3379,26.6854 -13.6656,5.7293 -29.4938,6.6044 -40.7885,4.8221 -28.9071,-2.5854 -42.8996,-17.9235 -65.2383,-33.3409 z"
               id="path1070-7-9-2-0-2-7-5-3-5-6-2-9"
               inkscape:connector-curvature="0"
               sodipodi:nodetypes="cccccccscccccccccccc" />
            <g
               transform="matrix(9.6600615,0,0,12.115821,116.05008,-546.71171)"
               id="g22">
              <text
                 xml:space="preserve"
                 style="font-style:normal;font-variant:normal;font-weight:normal;font-stretch:normal;font-size:42.84057999px;line-height:1.25;font-family:'Coca Cola ii';-inkscape-font-specification:'Coca Cola ii';letter-spacing:0px;word-spacing:0px;fill:#000000;fill-opacity:1;stroke:none;stroke-width:1.07101452"
                 x="46.014584"
                 y="118.33587"
                 id="text12"
                 transform="scale(0.97065102,1.0302364)"><tspan
                   sodipodi:role="line"
                   id="tspan10"
                   x="46.014584"
                   y="118.33587"
                   style="font-style:normal;font-variant:normal;font-weight:normal;font-stretch:normal;font-family:'Coca Cola ii';-inkscape-font-specification:'Coca Cola ii';stroke-width:1.07101452">ignati</tspan></text>
              <text
                 xml:space="preserve"
                 style="font-style:normal;font-variant:normal;font-weight:normal;font-stretch:normal;font-size:30.57700348px;line-height:1.25;font-family:Z003;-inkscape-font-specification:Z003;letter-spacing:0px;word-spacing:0px;fill:#000000;fill-opacity:1;stroke:none;stroke-width:0.76442504"
                 x="23.715425"
                 y="134.18233"
                 id="text16"
                 transform="matrix(1.100315,-2.3786649e-4,1.9647949e-4,0.90883062,0,0)"><tspan
                   sodipodi:role="line"
                   id="tspan14"
                   x="23.715425"
                   y="134.18233"
                   style="font-style:normal;font-variant:normal;font-weight:normal;font-stretch:normal;font-family:Z003;-inkscape-font-specification:Z003;stroke-width:0.76442504">S</tspan></text>
            </g>
          </g>
        </g>
      </g>
    </g>
  </g>
</svg>
