<?xml version="1.0" encoding="UTF-8" standalone="no"?>
<svg
   xmlns:dc="http://purl.org/dc/elements/1.1/"
   xmlns:cc="http://creativecommons.org/ns#"
   xmlns:rdf="http://www.w3.org/1999/02/22-rdf-syntax-ns#"
   xmlns:svg="http://www.w3.org/2000/svg"
   xmlns="http://www.w3.org/2000/svg"
   xmlns:sodipodi="http://sodipodi.sourceforge.net/DTD/sodipodi-0.dtd"
   xmlns:inkscape="http://www.inkscape.org/namespaces/inkscape"
   id="svg"
   version="1.1"
   width="158.30412"
   height="158.08205"
   viewBox="0 0 158.30413 158.08205"
   sodipodi:docname="signati.svg"
   inkscape:version="0.92.4 5da689c313, 2019-01-14"
   inkscape:export-filename="/home/misael/Documentos/misproyectos/signati/signati-core/signati.svg.png"
   inkscape:export-xdpi="96"
   inkscape:export-ydpi="96">
  <metadata
     id="metadata116">
    <rdf:RDF>
      <cc:Work
         rdf:about="">
        <dc:format>image/svg+xml</dc:format>
        <dc:type
           rdf:resource="http://purl.org/dc/dcmitype/StillImage" />
      </cc:Work>
    </rdf:RDF>
  </metadata>
  <defs
     id="defs114" />
  <sodipodi:namedview
     pagecolor="#ffffff"
     bordercolor="#666666"
     borderopacity="1"
     objecttolerance="10"
     gridtolerance="10"
     guidetolerance="10"
     inkscape:pageopacity="0"
     inkscape:pageshadow="2"
     inkscape:window-width="1366"
     inkscape:window-height="692"
     id="namedview112"
     showgrid="false"
     showguides="false"
     inkscape:zoom="3.7327253"
     inkscape:cx="-53.270192"
     inkscape:cy="93.112435"
     inkscape:window-x="0"
     inkscape:window-y="0"
     inkscape:window-maximized="1"
     inkscape:current-layer="svg" />
  <g
     id="svgg"
     transform="translate(-115.63105,-44.898666)">
    <g
       id="g1341"
       transform="translate(3.5928144,29.141717)"
       style="fill:#165016">
      <path
         inkscape:connector-curvature="0"
         id="path1070"
         d="m 134.26953,128.69383 c -0.18696,0.52774 -3.12279,3.48466 -3.41274,3.39197 -0.11494,-0.0365 -0.20892,0.14702 -0.20892,0.40745 0,0.25977 -0.2397,0.64453 -0.53202,0.85514 -0.29233,0.2106 -0.53073,0.53609 -0.53073,0.72277 0,0.18736 -0.13938,0.33998 -0.31013,0.33998 -0.17008,0 -0.23508,0.0763 -0.14273,0.16869 0.0924,0.0924 0.0274,0.42096 -0.14404,0.73056 -0.17141,0.3096 -0.3518,0.92141 -0.40097,1.3599 -0.0492,0.43849 -0.21695,1.19729 -0.37241,1.68561 -0.20264,0.63847 -0.19894,0.97149 0.013,1.18343 0.16211,0.16211 0.29326,0.74929 0.29326,1.30671 0,0.55741 0.11985,1.25123 0.26601,1.54157 0.14615,0.29033 0.38586,0.76783 0.53203,1.06016 0.64777,1.2962 1.00667,1.77955 2.20854,2.97543 0.7348,0.73149 1.19956,1.40192 1.0926,1.57532 -0.11228,0.18204 -0.0434,0.25345 0.17518,0.18037 0.47503,-0.15813 1.65561,1.03084 1.41311,1.42349 -0.1156,0.18735 -0.0706,0.23238 0.11678,0.11678 0.16809,-0.10364 0.60822,0.11579 0.9836,0.4905 0.37338,0.37338 0.58341,0.68055 0.46714,0.68255 -0.11627,0.002 0.0875,0.16158 0.45287,0.35425 0.36541,0.19201 0.63345,0.48974 0.59691,0.66049 -0.0365,0.17074 0.0606,0.31012 0.2154,0.31012 0.1548,0 0.21348,0.11102 0.12976,0.24656 -0.0844,0.13619 0.11812,0.28568 0.44898,0.33219 0.3581,0.0512 0.60336,0.27064 0.60469,0.5437 0.002,0.25246 0.21076,0.66685 0.46455,0.92131 0.34283,0.34282 0.46195,0.36769 0.46195,0.0986 0,-0.24516 0.15292,-0.19065 0.46585,0.16479 0.76337,0.86636 2.76714,2.21115 3.29466,2.21115 0.2704,0 0.49179,0.11855 0.49179,0.26471 0,0.14617 0.35131,0.26601 0.78117,0.26601 0.42985,0 0.85561,0.11986 0.94596,0.26601 0.0904,0.14617 0.93494,0.26602 1.87636,0.26602 0.96402,0 1.71155,-0.11654 1.71156,-0.26602 0,-0.14617 0.41188,-0.26601 0.91482,-0.26601 0.50294,0 0.98796,-0.11984 1.07833,-0.26601 0.0903,-0.14616 0.39755,-0.26471 0.68125,-0.26471 0.28369,0 0.51515,-0.11985 0.51515,-0.26601 0,-0.14616 0.17979,-0.26602 0.39837,-0.26602 0.011,0 0.18231,-0.17234 0.20113,-0.18036 l 34.03397,-33.87048 c -0.0585,-0.009 -0.1065,-0.0412 -0.1635,-0.0506 l -30.22026,30.07493 c -0.0188,0.008 -0.19011,0.18037 -0.20114,0.18037 -0.21858,0 -0.39837,0.11985 -0.39837,0.26601 0,0.14616 -0.23146,0.26601 -0.51515,0.26601 -0.28369,0 -0.5909,0.11855 -0.68125,0.26472 -0.0904,0.14616 -0.57539,0.26601 -1.07832,0.26601 -0.50294,0 -0.91482,0.11983 -0.91482,0.26601 -1e-5,0.14948 -0.74755,0.26601 -1.71156,0.26601 -0.94143,0 -1.78601,-0.11984 -1.87636,-0.26601 -0.0904,-0.14616 -0.51611,-0.26601 -0.94597,-0.26601 -0.42985,0 -0.78116,-0.11985 -0.78116,-0.26601 -1e-5,-0.14617 -0.2214,-0.26472 -0.4918,-0.26472 -0.26376,0 -0.89614,-0.33667 -1.55844,-0.78116 -0.66231,-0.44449 -1.35453,-0.9968 -1.73622,-1.42998 -0.15646,-0.17772 -0.27301,-0.28142 -0.35035,-0.30883 -0.0774,-0.0274 -0.11549,0.0215 -0.11549,0.14403 0,0.13454 -0.0299,0.19451 -0.10252,0.17907 -0.0726,-0.0154 -0.18802,-0.10628 -0.35943,-0.27769 -0.2538,-0.25446 -0.46256,-0.66884 -0.46455,-0.9213 -0.001,-0.27306 -0.24659,-0.49255 -0.6047,-0.54371 -0.33086,-0.0465 -0.53335,-0.19599 -0.44897,-0.33219 0.0837,-0.13553 0.025,-0.24655 -0.12976,-0.24655 -0.15482,-1e-5 -0.25195,-0.13938 -0.21541,-0.31013 0.0365,-0.17074 -0.23149,-0.46848 -0.5969,-0.66049 -0.36541,-0.19266 -0.56914,-0.35226 -0.45287,-0.35425 0.11626,-0.002 -0.0938,-0.30916 -0.46714,-0.68254 -0.37538,-0.37471 -0.81551,-0.59415 -0.9836,-0.4905 -0.18736,0.1156 -0.23239,0.0706 -0.11678,-0.11679 0.12124,-0.19632 -0.1131,-0.59216 -0.43731,-0.91872 -0.3242,-0.32655 -0.73829,-0.58383 -0.97581,-0.50477 -0.21856,0.0731 -0.28746,0.002 -0.17518,-0.18037 0.10697,-0.1734 -0.3578,-0.84383 -1.09259,-1.57531 -0.60094,-0.59794 -0.99096,-1.01839 -1.3119,-1.45074 -0.32093,-0.43235 -0.57277,-0.8766 -0.89665,-1.5247 -0.14617,-0.29233 -0.38587,-0.76982 -0.53203,-1.06016 -0.14616,-0.29033 -0.26601,-0.98415 -0.26601,-1.54157 0,-0.55741 -0.13115,-1.14459 -0.29326,-1.3067 -0.21192,-0.21194 -0.21561,-0.54496 -0.013,-1.18343 0.15546,-0.48832 0.32325,-1.24712 0.37242,-1.68561 0.0492,-0.43849 0.22955,-1.0503 0.40096,-1.3599 0.17141,-0.3096 0.23638,-0.63821 0.14404,-0.73056 -0.0924,-0.0923 -0.0273,-0.1687 0.14274,-0.1687 0.17074,0 0.31012,-0.15262 0.31012,-0.33997 0,-0.18669 0.2384,-0.51217 0.53073,-0.72278 0.27642,-0.19916 0.47936,-0.55076 0.50348,-0.80841 z"
         style="fill:#800000;fill-rule:evenodd;stroke:none;stroke-width:0.66438133" />
      <path
         inkscape:connector-curvature="0"
         id="path1114"
         d="m 246.28396,126.82526 c 0.007,0.0477 -0.0108,0.12266 0.009,0.157 0.0425,0.0736 0.1368,0.0948 0.23876,0.10901 -0.0915,-0.0853 -0.0824,-0.17962 -0.2154,-0.24006 -0.0177,-0.008 -0.0152,-0.0175 -0.0324,-0.026 z"
         style="fill:#165016;fill-rule:evenodd;stroke:none;stroke-width:0.66438133" />
      <path
         inkscape:connector-curvature="0"
         id="path1112"
         d="m 245.51058,126.10897 c 0.0237,0.0522 0.0895,0.0127 0.0895,0.096 0,0.18104 0.0185,0.27742 0.0766,0.29586 0.0237,0.008 0.0891,-0.0522 0.12717,-0.0701 -0.0104,-0.0207 -0.0856,-0.053 -0.0856,-0.0701 0,-0.12025 0.11985,-0.14496 0.26602,-0.0545 0.0335,0.0207 0.0121,-0.009 0.0389,0.005 0.059,-0.0452 0.0909,-0.0541 0.12457,-0.0662 -0.0675,-0.0982 -0.15339,-0.2136 -0.34776,-0.37112 -0.30562,-0.24782 -0.38468,-0.25839 -0.24915,-0.0324 0.0882,0.14697 0.0336,0.22385 -0.0402,0.2673 z"
         style="fill:#165016;fill-rule:evenodd;stroke:none;stroke-width:0.66438133" />
      <path
         inkscape:connector-curvature="0"
         id="path890"
         d="m 300.6601,150.46015 -0.0558,-0.0558 c 3.4e-4,0.008 0.0104,0.0132 0.0104,0.0207 0,0.0348 0.0389,0.007 0.0454,0.035 z"
         style="fill:#165016;fill-rule:evenodd;stroke:none;stroke-width:0.66438133" />
      <path
         inkscape:connector-curvature="0"
         id="path1138"
         d="m 220.30172,42.768048 c 0.31468,-0.238201 0.82857,-0.672666 1.84133,-1.679118 0.67802,-0.673789 0.78499,-0.877388 1.1977,-1.346926 z"
         style="fill:#165016;fill-rule:evenodd;stroke:none;stroke-width:0.66438133" />
      <path
         inkscape:connector-curvature="0"
         id="path1032"
         d="m 135.81182,62.745307 -0.0389,-0.04152 c -0.004,0.008 0.015,0.02232 0.0104,0.02983 -0.0116,0.01867 0.0354,-0.004 0.0286,0.01169 z"
         style="fill:#165016;fill-rule:evenodd;stroke:none;stroke-width:0.66438133" />
      <path
         inkscape:connector-curvature="0"
         id="path1030"
         d="m 139.44775,66.594048 c 0.0795,-0.15684 -0.004,-0.414926 -0.21151,-0.590422 -0.21466,-0.18123 -0.39378,-0.225245 -0.39577,-0.09732 -0.002,0.127927 -0.15668,-0.06824 -0.34646,-0.434705 -0.18916,-0.366459 -0.48322,-0.636145 -0.65141,-0.599497 -0.16819,0.03667 -0.30624,-0.11361 -0.30624,-0.333487 0,-0.219883 -0.14702,-0.368838 -0.327,-0.33219 -0.053,0.01076 -0.0428,-0.0491 -0.0843,-0.0584 l -0.89017,-0.94986 c -0.007,0.004 -0.007,0.0103 -0.013,0.01429 l 0.62416,0.656594 c 0.14279,0.139467 0.24907,0.189415 0.35555,0.371117 z"
         style="fill:#165016;fill-rule:evenodd;stroke:none;stroke-width:0.66438133" />
      <path
         inkscape:connector-curvature="0"
         id="path1028"
         d="m 139.90451,67.072868 c 0.12419,-0.08191 0.24915,-0.182725 0.24915,-0.281585 0,-0.129926 -0.19647,-0.160123 -0.436,-0.06617 -0.25113,0.09818 -0.31504,0.04093 -0.24395,-0.10381 z"
         style="fill:#165016;fill-rule:evenodd;stroke:none;stroke-width:0.66438133" />
      <path
         inkscape:connector-curvature="0"
         id="path1070-7"
         d="m 126.89939,78.814216 c -0.50321,0.245464 -4.66972,0.297523 -4.81161,0.0282 -0.0564,-0.106585 -0.25206,-0.04153 -0.43457,0.144265 -0.18204,0.185316 -0.62268,0.291821 -0.9788,0.237216 -0.35611,-0.05461 -0.75429,0.01053 -0.88511,0.143693 -0.1313,0.133661 -0.33768,0.144862 -0.45949,0.0252 -0.12132,-0.119187 -0.22116,-0.110307 -0.22003,0.02029 0.002,0.130669 -0.27545,0.319507 -0.61471,0.42023 -0.33924,0.100749 -0.89668,0.410786 -1.23904,0.689139 -0.34238,0.278334 -0.9938,0.702094 -1.4469,0.941509 -0.59198,0.313469 -0.82272,0.553632 -0.82004,0.853349 0.002,0.229244 -0.31589,0.74004 -0.70651,1.137692 -0.39063,0.397648 -0.79133,0.976595 -0.89053,1.286143 -0.0991,0.309535 -0.26281,0.818158 -0.36339,1.129132 -0.44623,1.378627 -0.52892,1.974951 -0.50957,3.67031 0.0115,1.036762 -0.12669,1.840726 -0.32451,1.889472 -0.20767,0.05118 -0.20857,0.150392 -0.002,0.251433 0.44969,0.220082 0.4587,1.895594 0.0104,2.005765 -0.21376,0.05264 -0.21321,0.116304 0.002,0.16514 0.19254,0.04385 0.35273,0.508829 0.35794,1.039196 0.004,0.528022 -0.0608,0.894333 -0.14506,0.814279 -0.0843,-0.08005 -0.0509,0.176592 0.0752,0.570029 0.12617,0.393043 0.10869,0.79328 -0.037,0.889482 -0.14569,0.09622 -0.17409,0.2637 -0.0637,0.372181 0.11046,0.108479 0.0745,0.228803 -0.0803,0.266824 -0.15565,0.03801 -0.11593,0.286575 0.0875,0.551617 0.21957,0.287473 0.24078,0.615893 0.0504,0.811629 -0.17548,0.181499 -0.31695,0.623417 -0.31422,0.982789 0.004,0.48481 0.0721,0.58601 0.26045,0.39406 0.17181,-0.17488 0.2427,-0.0288 0.21684,0.44403 -0.0625,1.15298 0.4245,3.51653 0.80085,3.88621 0.19289,0.18948 0.26775,0.4292 0.16533,0.53347 -0.10243,0.10431 0.0642,0.43596 0.37086,0.73718 0.30664,0.30124 0.52638,0.6851 0.48841,0.85269 -0.038,0.16762 0.48054,0.84495 1.15215,1.50467 0.68771,0.67557 1.30264,1.11627 1.40741,1.00964 0.10243,-0.1043 0.48025,0.0989 0.83904,0.45133 0.35878,0.35245 0.78876,0.60684 0.95566,0.56589 0.16685,-0.041 0.46911,0.0897 0.6715,0.28856 0.20238,0.19881 0.45149,0.27552 0.55392,0.17125 0.10242,-0.1043 0.31467,-0.0639 0.4706,0.0894 0.008,0.008 0.25083,0.005 0.26987,0.0122 l 48.01482,-0.31246 c -0.0355,-0.0474 -0.0471,-0.10402 -0.0811,-0.15067 l -42.63435,0.27732 c -0.019,-0.007 -0.26202,-0.005 -0.26989,-0.0122 -0.15594,-0.15317 -0.36818,-0.19366 -0.4706,-0.0895 -0.10242,0.10431 -0.35154,0.0275 -0.55392,-0.17124 -0.20236,-0.19881 -0.50462,-0.32952 -0.6715,-0.28857 -0.16692,0.0409 -0.59688,-0.21344 -0.95567,-0.56588 -0.35879,-0.35245 -0.73659,-0.5556 -0.83902,-0.45133 -0.10476,0.1066 -0.7197,-0.33408 -1.40742,-1.00965 -0.67159,-0.65973 -1.19011,-1.33708 -1.15214,-1.50466 0.038,-0.16764 -0.18177,-0.55145 -0.48842,-0.85269 -0.30666,-0.30122 -0.47328,-0.63291 -0.37087,-0.73718 0.10243,-0.1043 0.0275,-0.344 -0.16532,-0.53348 -0.18816,-0.18484 -0.40336,-0.86817 -0.56434,-1.6494 -0.16095,-0.78122 -0.26777,-1.66032 -0.23653,-2.23681 0.0129,-0.23642 0.002,-0.39208 -0.0335,-0.46583 -0.036,-0.0738 -0.0975,-0.0656 -0.18333,0.0218 -0.0943,0.096 -0.15764,0.11781 -0.19862,0.0559 -0.0411,-0.0618 -0.0596,-0.20759 -0.0621,-0.449949 -0.003,-0.359379 0.13872,-0.801288 0.31422,-0.982777 0.19063,-0.195499 0.16924,-0.524183 -0.0504,-0.81163 -0.20346,-0.265031 -0.24315,-0.513574 -0.0875,-0.55161 0.15468,-0.03803 0.19061,-0.158366 0.0802,-0.266817 -0.11046,-0.108498 -0.082,-0.275989 0.0637,-0.372196 0.14568,-0.09622 0.16315,-0.496428 0.037,-0.889475 -0.12563,-0.393515 -0.15919,-0.650131 -0.0752,-0.570029 0.0843,0.08005 0.14974,-0.286282 0.14506,-0.814273 -0.005,-0.530375 -0.16543,-0.995342 -0.35796,-1.039203 -0.21466,-0.04883 -0.21526,-0.112488 -0.002,-0.165147 0.22407,-0.05509 0.33428,-0.501694 0.33184,-0.961854 -0.002,-0.46015 -0.11711,-0.93392 -0.34238,-1.043917 -0.20715,-0.101012 -0.20649,-0.200018 0.002,-0.251432 0.19782,-0.04874 0.33608,-0.852711 0.3245,-1.88946 -0.01,-0.847682 0.006,-1.420942 0.0808,-1.954279 0.074,-0.53333 0.20569,-1.026734 0.4288,-1.716042 0.10057,-0.310976 0.26421,-0.819585 0.36341,-1.129133 0.0992,-0.309543 0.49989,-0.88849 0.89051,-1.286143 0.39063,-0.397647 0.70855,-0.908436 0.70652,-1.137687 -0.003,-0.299701 0.22807,-0.539859 0.82004,-0.853347 0.4531,-0.239418 1.10455,-0.663149 1.4469,-0.941502 0.34238,-0.278333 0.89978,-0.588404 1.23903,-0.689147 0.33924,-0.100739 0.61587,-0.28964 0.61471,-0.420229 -0.002,-0.130598 0.0987,-0.139479 0.22005,-0.02029 0.1218,0.119651 0.32819,0.108449 0.45947,-0.0252 0.13083,-0.133181 0.52899,-0.198308 0.88513,-0.143694 0.33676,0.05163 0.72793,-0.05698 0.92568,-0.223878 z"
         style="fill:#d4aa00;fill-rule:evenodd;stroke:none;stroke-width:0.66438133" />
      <path
         inkscape:connector-curvature="0"
         id="path1070-7-9"
         d="m 157.90061,38.531987 c -0.51671,-0.215598 -3.30835,-3.309017 -3.19991,-3.59346 0.0428,-0.112759 -0.13532,-0.216662 -0.39539,-0.230927 -0.25938,-0.01423 -0.63044,-0.27466 -0.82472,-0.578074 -0.19425,-0.303411 -0.50621,-0.559292 -0.6926,-0.569526 -0.18709,-0.01027 -0.33184,-0.157795 -0.32248,-0.328292 0.009,-0.169809 -0.0633,-0.238902 -0.16059,-0.151772 -0.0968,0.08782 -0.42183,0.0043 -0.72157,-0.183845 -0.29975,-0.18811 -0.90076,-0.40176 -1.3359,-0.474878 -0.43513,-0.07315 -1.18361,-0.282219 -1.66267,-0.464195 -0.62641,-0.237311 -0.95914,-0.251867 -1.18237,-0.05185 -0.17077,0.152948 -0.76424,0.25176 -1.32082,0.221197 -0.55658,-0.03055 -1.25591,0.05112 -1.55383,0.181148 -0.29784,0.130095 -0.78781,0.343215 -1.08771,0.473151 -1.32974,0.575789 -1.83203,0.907669 -3.09196,2.042217 -0.7707,0.693559 -1.46553,1.12095 -1.63282,1.004649 -0.17561,-0.122088 -0.25068,-0.05722 -0.19007,0.164606 0.13186,0.48298 -1.11999,1.59665 -1.49886,1.332894 -0.18073,-0.125695 -0.22816,-0.08322 -0.12265,0.110601 0.0943,0.17351 -0.14896,0.600949 -0.54366,0.955242 -0.39374,0.351834 -0.71155,0.545189 -0.70711,0.429047 0.004,-0.116171 -0.1662,0.07846 -0.37825,0.433038 -0.2117,0.354375 -0.52371,0.605666 -0.69217,0.559849 -0.16849,-0.04581 -0.31298,0.04352 -0.32149,0.198059 -0.008,0.154587 -0.12254,0.207084 -0.25335,0.115996 -0.13136,-0.09174 -0.29172,0.102295 -0.3563,0.430107 -0.0707,0.354748 -0.30328,0.587637 -0.57599,0.57403 -0.25218,-0.01183 -0.67739,0.173918 -0.94537,0.413384 -0.36131,0.323286 -0.39228,0.441265 -0.12376,0.455851 0.24479,0.01344 0.18196,0.163169 -0.19008,0.456127 -0.90683,0.714784 -2.35943,2.641832 -2.38832,3.168584 -0.0148,0.269983 -0.14531,0.484548 -0.29125,0.476546 -0.14598,-0.008 -0.28486,0.336207 -0.3084,0.765415 -0.0235,0.4292 -0.16656,0.847761 -0.31746,0.929973 -0.15093,0.08221 -0.31684,0.918949 -0.3684,1.858966 -0.0528,0.962576 0.0226,1.715349 0.17185,1.723557 0.14597,0.008 0.24303,0.425862 0.21553,0.928029 -0.0276,0.502179 0.0655,0.993034 0.20658,1.091258 0.141,0.09817 0.24257,0.411422 0.22699,0.694732 -0.0156,0.283273 0.0917,0.520915 0.2374,0.528962 0.14595,0.008 0.25585,0.194009 0.24377,0.412344 -10e-4,0.01136 0.16196,0.191601 0.16914,0.210651 l 31.95505,35.838454 c 0.0122,-0.05797 0.047,-0.104069 0.0596,-0.160428 L 133.25396,59.100922 c -0.007,-0.01891 -0.16935,-0.200002 -0.16913,-0.210668 0.012,-0.218256 -0.0979,-0.404332 -0.24372,-0.412407 -0.14597,-0.008 -0.25288,-0.245735 -0.23739,-0.528958 0.0156,-0.283256 -0.086,-0.596519 -0.22699,-0.694738 -0.14098,-0.09829 -0.23409,-0.589086 -0.20658,-1.091261 0.0276,-0.502188 -0.0695,-0.920017 -0.21543,-0.928029 -0.14923,-0.0082 -0.22466,-0.760988 -0.17185,-1.723568 0.0516,-0.940009 0.21752,-1.776749 0.36841,-1.858954 0.15095,-0.08223 0.29389,-0.500766 0.31744,-0.929979 0.0235,-0.429206 0.16246,-0.773419 0.30839,-0.765423 0.14597,0.008 0.27642,-0.206617 0.29127,-0.476546 0.0145,-0.26337 0.38526,-0.876351 0.86539,-1.51331 0.48013,-0.636931 1.06951,-1.29789 1.52292,-1.65529 0.186,-0.146505 0.29565,-0.257522 0.32756,-0.332893 0.0316,-0.07578 -0.0151,-0.116544 -0.13748,-0.123225 -0.13436,-0.0074 -0.19258,-0.04051 -0.17318,-0.112176 0.0192,-0.07168 0.11647,-0.181884 0.29675,-0.343872 0.26781,-0.239672 0.69318,-0.425225 0.94536,-0.413375 0.2727,0.01395 0.50532,-0.219248 0.576,-0.57403 0.0645,-0.327829 0.22491,-0.521822 0.35629,-0.430103 0.13074,0.09099 0.24481,0.03847 0.25329,-0.116066 0.008,-0.154595 0.153,-0.243885 0.32148,-0.198066 0.16848,0.0458 0.48046,-0.205484 0.69219,-0.559848 0.21241,-0.354282 0.38288,-0.549006 0.37823,-0.433036 -0.004,0.116171 0.31384,-0.07672 0.70711,-0.429044 0.39486,-0.35414 0.63793,-0.781752 0.54365,-0.955261 -0.10515,-0.193405 -0.0578,-0.235901 0.12266,-0.110602 0.18938,0.131816 0.59746,-0.08049 0.9413,-0.386326 0.34411,-0.305494 0.62372,-0.704899 0.55747,-0.946678 -0.061,-0.222237 0.0137,-0.287149 0.19008,-0.164605 0.16727,0.116306 0.86216,-0.311038 1.6328,-1.004649 0.62975,-0.567518 1.07067,-0.934226 1.52046,-1.230417 0.44927,-0.296787 0.90667,-0.52389 1.57152,-0.811783 0.29989,-0.129946 0.78981,-0.343107 1.08773,-0.473138 0.29791,-0.130026 0.99724,-0.211702 1.55382,-0.181166 0.55657,0.03055 1.15006,-0.06824 1.32082,-0.221196 0.22301,-0.200248 0.55595,-0.18544 1.18236,0.05185 0.47907,0.181975 1.22754,0.391087 1.66267,0.464198 0.43513,0.07315 1.03615,0.286745 1.33589,0.474867 0.29975,0.188116 0.6243,0.270989 0.72157,0.183846 0.0967,-0.08779 0.16992,-0.01809 0.16061,0.151787 -0.009,0.170486 0.13546,0.31801 0.32247,0.328276 0.1864,0.01023 0.49834,0.266105 0.69262,0.56954 0.18372,0.286916 0.52368,0.508817 0.77961,0.547009 z"
         style="fill:#008000;fill-rule:evenodd;stroke:none;stroke-width:0.66438133" />
      <path
         inkscape:connector-curvature="0"
         id="path1070-7-9-2"
         d="m 207.265,31.457686 c -0.22284,-0.513629 -0.0895,-4.678329 0.18578,-4.808103 0.10903,-0.05158 0.0527,-0.249949 -0.12478,-0.440554 -0.17705,-0.190102 -0.26385,-0.635046 -0.19346,-0.988387 0.0704,-0.35332 0.0234,-0.753998 -0.10418,-0.89062 -0.12769,-0.137123 -0.1297,-0.343792 -0.005,-0.46016 0.12422,-0.11612 0.12004,-0.216038 -0.0105,-0.220714 -0.13065,-0.0038 -0.30694,-0.289387 -0.39248,-0.632792 -0.0855,-0.343386 -0.37049,-0.914063 -0.63334,-1.268466 -0.26283,-0.354418 -0.6572,-1.024045 -0.87623,-1.487342 -0.28682,-0.605337 -0.51649,-0.846533 -0.81603,-0.857187 -0.2291,-0.0082 -0.72526,-0.348492 -1.10513,-0.756434 -0.37988,-0.407932 -0.94043,-0.83398 -1.24526,-0.946855 -0.30482,-0.112771 -0.80565,-0.298935 -1.11185,-0.413249 -1.35742,-0.507108 -1.94947,-0.616238 -3.64401,-0.672312 -1.03625,-0.03463 -1.83327,-0.208431 -1.87317,-0.408229 -0.0419,-0.209738 -0.14096,-0.215047 -0.25109,-0.01315 -0.23988,0.439453 -1.91412,0.373937 -2.00425,-0.07881 -0.0431,-0.215887 -0.1067,-0.218168 -0.16507,-0.0053 -0.0523,0.190414 -0.52401,0.329745 -1.05409,0.311366 -0.52767,-0.01946 -0.89074,-0.100516 -0.80701,-0.181131 0.0834,-0.08093 -0.17417,-0.0587 -0.57282,0.04977 -0.39826,0.108567 -0.79732,0.0733 -0.88694,-0.07652 -0.0897,-0.149837 -0.25571,-0.185652 -0.36899,-0.08019 -0.11295,0.105844 -0.23189,0.06425 -0.26299,-0.09209 -0.0311,-0.157188 -0.28114,-0.128559 -0.55496,0.06287 -0.29692,0.206602 -0.626,0.213151 -0.81307,0.01426 -0.17351,-0.18338 -0.6087,-0.344364 -0.96784,-0.357621 -0.48451,-0.01755 -0.58864,0.04597 -0.40526,0.242664 0.16708,0.179415 0.0179,0.243742 -0.45323,0.196878 -1.14905,-0.113717 -3.53193,0.267675 -3.91798,0.627209 -0.19787,0.184281 -0.44069,0.2484 -0.54029,0.141443 -0.0997,-0.106984 -0.43839,0.04474 -0.75296,0.337703 -0.31453,0.292978 -0.70783,0.495389 -0.87357,0.449999 -0.16575,-0.04541 -0.86548,0.442485 -1.55442,1.084089 -0.70547,0.656999 -1.17309,1.251712 -1.07124,1.361112 0.0996,0.106976 -0.12016,0.475377 -0.48817,0.818159 -0.36808,0.342722 -0.64134,0.760975 -0.60779,0.929573 0.0336,0.168507 -0.11047,0.464654 -0.31815,0.657997 -0.20765,0.193304 -0.2951,0.438943 -0.19569,0.545766 0.0996,0.106962 0.0499,0.317199 -0.11032,0.466148 -0.008,0.0075 -0.0164,0.250354 -0.0242,0.269067 l -1.82339,47.981197 c 0.049,-0.03331 0.10603,-0.0424 0.15418,-0.07427 l 1.61905,-42.604563 c 0.008,-0.01847 0.0167,-0.261539 0.0242,-0.269073 0.15998,-0.14895 0.20981,-0.359234 0.11031,-0.466161 -0.0996,-0.106976 -0.0119,-0.352412 0.19571,-0.545755 0.20764,-0.193292 0.35164,-0.489468 0.31815,-0.658002 -0.0334,-0.168576 0.23978,-0.586794 0.6078,-0.929575 0.36809,-0.342728 0.58783,-0.711132 0.48824,-0.81809 -0.10186,-0.109381 0.36576,-0.704124 1.07124,-1.36112 0.68897,-0.641571 1.38869,-1.129462 1.55442,-1.084074 0.16579,0.04541 0.55899,-0.157064 0.87357,-0.450016 0.31453,-0.292982 0.65333,-0.444663 0.75294,-0.337717 0.0996,0.106977 0.34245,0.04278 0.5403,-0.141429 0.19307,-0.179724 0.88526,-0.364349 1.67288,-0.490417 0.7876,-0.126048 1.67058,-0.193659 2.24511,-0.13681 0.23562,0.0234 0.3916,0.01947 0.46685,-0.01275 0.0754,-0.03269 0.07,-0.09444 -0.0136,-0.184116 -0.0917,-0.0985 -0.11068,-0.162721 -0.047,-0.200909 0.0635,-0.03834 0.21005,-0.0503 0.45226,-0.04202 0.35917,0.01303 0.79434,0.174226 0.96783,0.35762 0.18683,0.199136 0.51615,0.192391 0.81308,-0.01425 0.27378,-0.191504 0.52388,-0.220066 0.55495,-0.06288 0.0311,0.156216 0.14973,0.197466 0.26299,0.09199 0.11296,-0.105852 0.27935,-0.06966 0.36899,0.08019 0.0897,0.149823 0.48869,0.185072 0.88696,0.07653 0.39871,-0.108008 0.65656,-0.130122 0.5728,-0.04978 -0.0834,0.08093 0.27934,0.162326 0.80702,0.181133 0.53008,0.01862 1.00172,-0.120988 1.05409,-0.311387 0.0584,-0.21227 0.12193,-0.210062 0.16508,0.0053 0.0451,0.226295 0.48632,0.356264 0.94614,0.374295 0.45978,0.01842 0.9382,-0.07546 1.05811,-0.295619 0.11013,-0.202434 0.20898,-0.197413 0.2511,0.01316 0.0399,0.199789 0.83692,0.373674 1.87315,0.408216 0.84729,0.02767 1.41927,0.06919 1.94876,0.167638 0.52951,0.09765 1.01657,0.251158 1.69526,0.504699 0.3062,0.114301 0.80702,0.3004 1.11186,0.413273 0.30482,0.112869 0.86537,0.538913 1.24526,0.946836 0.37988,0.407924 0.87603,0.74825 1.10513,0.756434 0.29955,0.0103 0.52919,0.251858 0.81603,0.85718 0.21903,0.463302 0.61337,1.132955 0.87622,1.487344 0.26282,0.354419 0.54781,0.925062 0.63335,1.268451 0.0856,0.343393 0.26195,0.628142 0.39247,0.632793 0.13055,0.0038 0.13499,0.104784 0.0105,0.220739 -0.1247,0.116608 -0.12289,0.323075 0.005,0.460142 0.12722,0.136616 0.17458,0.537285 0.10418,0.890642 -0.0666,0.334131 0.0246,0.729749 0.18249,0.934724 z"
         style="fill:#006680;fill-rule:evenodd;stroke:none;stroke-width:0.66438133" />
      <path
         inkscape:connector-curvature="0"
         id="path1070-7-9-2-0"
         d="m 247.52691,61.370191 c 0.21091,-0.51864 3.27898,-3.33812 3.56433,-3.232318 0.11315,0.04178 0.21542,-0.137288 0.22735,-0.397456 0.0119,-0.259508 0.26894,-0.632908 0.57059,-0.82992 0.30164,-0.196991 0.55494,-0.510982 0.56324,-0.697726 0.009,-0.187174 0.15479,-0.33325 0.32518,-0.325621 0.16988,0.0075 0.23832,-0.06546 0.1503,-0.16197 -0.0887,-0.09598 -0.008,-0.421771 0.17731,-0.723207 0.18543,-0.301394 0.3936,-0.904352 0.46278,-1.340133 0.0692,-0.435778 0.2715,-1.186115 0.44913,-1.666807 0.23164,-0.628522 0.24319,-0.961375 0.0412,-1.182785 -0.15448,-0.16938 -0.25866,-0.761933 -0.23314,-1.318769 0.0255,-0.556836 -0.0625,-1.2554 -0.19519,-1.55213 -0.13279,-0.29665 -0.35033,-0.78467 -0.48297,-1.083386 -0.5878,-1.324479 -0.9242,-1.823743 -2.0701,-3.073357 -0.7005,-0.764405 -1.13416,-1.455335 -1.01937,-1.623666 0.12048,-0.176716 0.0549,-0.251188 -0.16634,-0.188551 -0.48177,0.136217 -1.60672,-1.105505 -1.34641,-1.486744 0.12404,-0.181877 0.0812,-0.228902 -0.11174,-0.121615 -0.17261,0.09591 -0.60226,-0.143512 -0.96012,-0.534998 -0.3554,-0.390522 -0.5516,-0.706582 -0.43542,-0.703195 0.11618,0.0029 -0.08,-0.165488 -0.43645,-0.37432 -0.35627,-0.208485 -0.61037,-0.518207 -0.56608,-0.687074 0.0443,-0.168936 -0.0463,-0.312578 -0.20096,-0.319683 -0.15465,-0.0066 -0.20818,-0.120667 -0.11828,-0.252298 0.0905,-0.132224 -0.10493,-0.290785 -0.4333,-0.352394 -0.35538,-0.06749 -0.59037,-0.29796 -0.57923,-0.570777 0.01,-0.252275 -0.18003,-0.675788 -0.42191,-0.941591 -0.32656,-0.358357 -0.44481,-0.388279 -0.45696,-0.119636 -0.0112,0.244907 -0.16157,0.183372 -0.45782,-0.185944 -0.72296,-0.900325 -2.66307,-2.335438 -3.19006,-2.359559 -0.27011,-0.01236 -0.48585,-0.140929 -0.47915,-0.286926 0.007,-0.146088 -0.33877,-0.28182 -0.76819,-0.301476 -0.42939,-0.01962 -0.84923,-0.158881 -0.9328,-0.309032 -0.0836,-0.150172 -0.92178,-0.308513 -1.86222,-0.351571 -0.96301,-0.04409 -1.71507,0.03812 -1.72193,0.187432 -0.007,0.14601 -0.42365,0.246871 -0.92605,0.223911 -0.5024,-0.02305 -0.9924,0.07449 -1.08934,0.216444 -0.0968,0.141932 -0.40921,0.246289 -0.69265,0.233262 -0.2834,-0.01303 -0.52006,0.09642 -0.52679,0.242185 -0.007,0.146 -0.19164,0.257638 -0.41017,0.247441 -0.011,-4.66e-4 -0.1903,0.163499 -0.20912,0.171024 l -35.548,32.277896 c 0.0581,0.01169 0.10449,0.04606 0.16095,0.05815 l 31.56455,-28.660939 c 0.0188,-0.0072 0.1985,-0.171113 0.20913,-0.171029 0.21835,0.01003 0.40343,-0.101552 0.41017,-0.247457 0.007,-0.146011 0.24339,-0.25514 0.52679,-0.242163 0.28338,0.01303 0.59571,-0.09139 0.69266,-0.233265 0.097,-0.141837 0.58694,-0.239406 1.08935,-0.216438 0.50241,0.02305 0.91934,-0.07782 0.92604,-0.223814 0.007,-0.149308 0.75892,-0.231537 1.72194,-0.187437 0.94044,0.0431 1.77864,0.201439 1.86221,0.351581 0.0836,0.150201 0.5034,0.28935 0.93282,0.309021 0.42939,0.01961 0.77485,0.155454 0.76817,0.301451 -0.007,0.146011 0.20912,0.274544 0.47916,0.286943 0.2635,0.01212 0.87981,0.377325 1.52108,0.851673 0.64125,0.474348 1.30751,1.057721 1.66899,1.507881 0.14819,0.184675 0.26016,0.293337 0.33584,0.324537 0.0761,0.03098 0.11645,-0.0161 0.12199,-0.138571 0.006,-0.134435 0.0388,-0.192938 0.11061,-0.17418 0.0718,0.01852 0.18294,0.114831 0.34654,0.293631 0.24206,0.265666 0.43148,0.689313 0.42191,0.941583 -0.0115,0.272817 0.22381,0.503321 0.57922,0.570791 0.3284,0.06153 0.52383,0.220179 0.4333,0.35238 -0.0898,0.131544 -0.0362,0.245148 0.11835,0.252228 0.15467,0.0066 0.24527,0.150781 0.20097,0.319683 -0.0442,0.168926 0.20982,0.478585 0.56609,0.687095 0.35619,0.209199 0.55244,0.377898 0.43644,0.374299 -0.11618,-0.0029 0.0795,0.313132 0.43542,0.703203 0.35768,0.391656 0.78749,0.63083 0.96014,0.534984 0.19249,-0.106847 0.23537,-0.05992 0.11174,0.121622 -0.13007,0.190589 0.0859,0.596703 0.39482,0.937761 0.30863,0.341301 0.71051,0.617322 0.95169,0.54889 0.22167,-0.06301 0.28726,0.01111 0.16634,0.188565 -0.11478,0.168324 0.31882,0.859313 1.01937,1.623642 0.57322,0.624564 0.94387,1.062175 1.24412,1.509277 0.30084,0.446558 0.53207,0.901888 0.82596,1.564105 0.13266,0.298706 0.35023,0.786674 0.48296,1.08341 0.13271,0.296719 0.22071,0.995279 0.19521,1.552116 -0.0255,0.55683 0.0786,1.1494 0.23314,1.318769 0.20228,0.22117 0.19046,0.554254 -0.0412,1.18278 -0.17763,0.480697 -0.37997,1.231031 -0.44914,1.666802 -0.0692,0.435771 -0.27736,1.038705 -0.46276,1.34013 -0.18537,0.30147 -0.26534,0.626718 -0.17732,0.723201 0.0887,0.09591 0.0196,0.169754 -0.15032,0.161987 -0.17056,-0.0075 -0.31677,0.138331 -0.32517,0.325608 -0.009,0.186483 -0.26159,0.500725 -0.56325,0.697741 -0.28527,0.186276 -0.50403,0.528296 -0.53993,0.784528 z"
         style="fill:#ff7f2a;fill-rule:evenodd;stroke:none;stroke-width:0.66438133" />
      <path
         inkscape:connector-curvature="0"
         id="path1070-7-9-2-0-2"
         d="m 254.98361,110.85064 c 0.50989,-0.23124 4.67622,-0.16621 4.81049,0.10686 0.0533,0.10819 0.25079,0.0486 0.43845,-0.13198 0.18719,-0.18013 0.63064,-0.27423 0.98509,-0.20964 0.35442,0.0646 0.75427,0.0114 0.88879,-0.11877 0.13532,-0.12963 0.34162,-0.13533 0.46002,-0.0125 0.11845,0.12197 0.218,0.11645 0.22051,-0.0141 0.002,-0.13069 0.28439,-0.31157 0.62627,-0.4028 0.34193,-0.0911 0.90786,-0.38544 1.25791,-0.65406 0.35005,-0.26861 1.01312,-0.67391 1.47277,-0.9005 0.60055,-0.29671 0.83795,-0.5303 0.84372,-0.82995 0.004,-0.22921 0.33655,-0.73088 0.73821,-1.11739 0.40164,-0.38653 0.81843,-0.95399 0.92631,-1.26062 0.10776,-0.30663 0.28568,-0.81044 0.39496,-1.11847 0.48478,-1.36556 0.58419,-1.95931 0.61246,-3.65455 0.0177,-1.03669 0.17834,-1.836446 0.37746,-1.87962 0.20902,-0.04533 0.21267,-0.144495 0.009,-0.251278 -0.44332,-0.232638 -0.40527,-1.907727 0.0462,-2.005264 0.21515,-0.04661 0.21642,-0.110237 0.003,-0.16513 -0.19125,-0.04915 -0.33829,-0.518529 -0.32861,-1.048851 0.0108,-0.52792 0.0859,-0.892265 0.16787,-0.809869 0.0824,0.08208 0.0559,-0.175128 -0.0591,-0.57193 -0.11508,-0.396424 -0.0864,-0.79601 0.0619,-0.888071 0.14839,-0.09209 0.18148,-0.25868 0.0742,-0.370254 -0.10768,-0.111202 -0.068,-0.230798 0.0878,-0.264467 0.15665,-0.03372 0.12394,-0.28321 -0.072,-0.553851 -0.21145,-0.293496 -0.2234,-0.622424 -0.0276,-0.812732 0.18083,-0.176184 0.33434,-0.614261 0.3417,-0.97357 0.01,-0.484736 -0.0556,-0.587812 -0.24928,-0.401229 -0.17663,0.170012 -0.24341,0.0219 -0.20427,-0.449937 0.0948,-1.150765 -0.32557,-3.52707 -0.69138,-3.907173 -0.18751,-0.19482 -0.25559,-0.436558 -0.15028,-0.537892 0.10559,-0.101193 -0.0519,-0.437597 -0.35001,-0.747326 -0.29809,-0.309682 -0.50693,-0.699611 -0.46426,-0.866071 0.0427,-0.166494 -0.45663,-0.858111 -1.10943,-1.536432 -0.66848,-0.694599 -1.27079,-1.152403 -1.37849,-1.048773 -0.10555,0.101136 -0.47729,-0.112352 -0.82607,-0.474693 -0.34871,-0.362406 -0.77139,-0.628773 -0.93941,-0.592463 -0.1679,0.03639 -0.46641,-0.102834 -0.66312,-0.307314 -0.19669,-0.204451 -0.44374,-0.287863 -0.54891,-0.186718 -0.10554,0.10113 -0.31633,0.05509 -0.46789,-0.102662 -0.008,-0.008 -0.25059,-0.01228 -0.26943,-0.01979 l -48.00467,-1.036344 c 0.0341,0.04847 0.0441,0.105347 0.0768,0.152903 l 42.62537,0.920177 c 0.0186,0.0078 0.26179,0.01239 0.26945,0.01979 0.15154,0.157516 0.36262,0.20389 0.46791,0.102653 0.10553,-0.101137 0.35216,-0.01767 0.54888,0.186734 0.19667,0.204436 0.49516,0.343564 0.66313,0.307318 0.16798,-0.03619 0.59065,0.230122 0.93942,0.592475 0.34872,0.362413 0.72067,0.576088 0.82598,0.474756 0.10781,-0.10353 0.71003,0.354163 1.37851,1.048777 0.65278,0.678351 1.15208,1.36998 1.10942,1.536432 -0.0427,0.166517 0.1662,0.556337 0.46428,0.866076 0.2981,0.309676 0.45531,0.645948 0.35001,0.747295 -0.10554,0.101138 -0.0371,0.343111 0.15027,0.537912 0.18288,0.190097 0.37882,0.879167 0.5178,1.664611 0.13894,0.78543 0.22102,1.667184 0.1736,2.242564 -0.0195,0.235975 -0.0135,0.391859 0.0204,0.466579 0.0339,0.07484 0.0956,0.06844 0.18386,-0.01662 0.0969,-0.09342 0.16091,-0.113311 0.20011,-0.05029 0.0394,0.06284 0.0537,0.209202 0.0494,0.451514 -0.007,0.359333 -0.16118,0.797088 -0.3417,0.973565 -0.19607,0.190059 -0.1839,0.519232 0.0275,0.812737 0.19597,0.270603 0.22863,0.5202 0.072,0.553842 -0.15567,0.03364 -0.19494,0.152984 -0.0876,0.264458 0.10769,0.111211 0.0742,0.278174 -0.0742,0.370254 -0.1483,0.09219 -0.17703,0.491657 -0.0619,0.888101 0.11453,0.396884 0.14087,0.654333 0.0592,0.571912 -0.0823,-0.08208 -0.15776,0.281926 -0.16788,0.809879 -0.01,0.530307 0.1374,0.999599 0.32864,1.048841 0.21319,0.05487 0.21202,0.118471 -0.003,0.165141 -0.22552,0.04881 -0.34824,0.492105 -0.35873,0.952148 -0.0108,0.460029 0.0908,0.936841 0.31293,1.053123 0.20421,0.1068 0.20081,0.205713 -0.009,0.251288 -0.1991,0.04322 -0.35989,0.842937 -0.37744,1.879609 -0.0142,0.84761 -0.0459,1.4202 -0.13569,1.95124 -0.0889,0.53104 -0.23445,1.02056 -0.47683,1.7033 -0.10926,0.30805 -0.28713,0.81184 -0.39499,1.11849 -0.10785,0.30663 -0.52465,0.8741 -0.92628,1.26063 -0.40164,0.38652 -0.73382,0.88815 -0.73822,1.11738 -0.005,0.29968 -0.24314,0.53325 -0.84371,0.82995 -0.45965,0.22661 -1.12274,0.63187 -1.47277,0.9005 -0.35005,0.2686 -0.91596,0.5629 -1.25789,0.65406 -0.34195,0.0912 -0.62377,0.27222 -0.62628,0.40279 -0.002,0.13063 -0.10262,0.13667 -0.22054,0.0141 -0.11826,-0.12316 -0.32505,-0.11757 -0.46,0.0125 -0.13483,0.12914 -0.53435,0.18337 -0.88881,0.11878 -0.33517,-0.0611 -0.72924,0.0365 -0.9316,0.1978 z"
         style="fill:#330080;fill-rule:evenodd;stroke:none;stroke-width:0.66438133" />
      <path
         inkscape:connector-curvature="0"
         id="path1070-7-9-2-0-2-3"
         d="m 224.69894,151.37562 c 0.52284,0.20025 3.40446,3.21001 3.30456,3.49745 -0.0395,0.11394 0.14166,0.21257 0.40201,0.21917 0.25971,0.007 0.63828,0.25594 0.84142,0.55351 0.20311,0.29754 0.52196,0.54463 0.70911,0.54885 0.1873,0.005 0.33634,0.14793 0.33216,0.31849 -0.003,0.16999 0.0703,0.23691 0.16499,0.14696 0.0944,-0.0904 0.42153,-0.0166 0.7267,0.16248 0.30509,0.17924 0.9122,0.37501 1.34931,0.43528 0.43709,0.0603 1.19141,0.24717 1.67564,0.41495 0.63312,0.21873 0.96614,0.22348 1.18339,0.017 0.16588,-0.15822 0.75647,-0.27419 1.31372,-0.26006 0.55725,0.0141 1.25386,-0.0882 1.54781,-0.22689 0.29388,-0.13883 0.77734,-0.3663 1.07328,-0.50502 1.31219,-0.61476 1.80445,-0.9613 3.03038,-2.13253 0.74997,-0.71594 1.43184,-1.16369 1.60248,-1.05237 0.17912,0.11687 0.25225,0.0498 0.1851,-0.17019 -0.14604,-0.47887 1.07241,-1.62898 1.45908,-1.37632 0.18435,0.12031 0.23052,0.0764 0.11959,-0.11392 -0.0995,-0.17057 0.13116,-0.60507 0.51525,-0.97087 0.38317,-0.36331 0.69516,-0.56593 0.69414,-0.44971 -9.7e-4,0.11633 0.16387,-0.0833 0.36535,-0.44397 0.20117,-0.36047 0.5056,-0.62087 0.67531,-0.58005 0.1698,0.0408 0.31156,-0.0526 0.31556,-0.20741 0.003,-0.15477 0.11641,-0.21058 0.24985,-0.12341 0.13407,0.0878 0.28859,-0.1108 0.34344,-0.44044 0.0603,-0.35668 0.28581,-0.59633 0.5588,-0.59078 0.25242,0.005 0.67196,-0.19381 0.93276,-0.44108 0.35188,-0.33354 0.37912,-0.45264 0.1103,-0.45932 -0.24511,-0.006 -0.18664,-0.15778 0.17653,-0.46152 0.88533,-0.74125 2.2805,-2.71027 2.29383,-3.23764 0.007,-0.27029 0.13098,-0.48864 0.27707,-0.48493 0.14621,0.004 0.27485,-0.34444 0.28572,-0.77419 0.0108,-0.4297 0.14148,-0.8523 0.28988,-0.93893 0.14845,-0.0866 0.28958,-0.9279 0.31341,-1.86901 0.0243,-0.96372 -0.0732,-1.71393 -0.22261,-1.71774 -0.14614,-0.004 -0.25548,-0.4185 -0.24281,-0.92128 0.0127,-0.50276 -0.0948,-0.99067 -0.23868,-1.08469 -0.14388,-0.0939 -0.25461,-0.40408 -0.24738,-0.68772 0.007,-0.28363 -0.10704,-0.51799 -0.2529,-0.52174 -0.14613,-0.004 -0.26151,-0.18631 -0.25579,-0.40501 8e-5,-0.0113 -0.16735,-0.18692 -0.17524,-0.2056 L 219.48327,98.954991 c -0.0105,0.05837 -0.044,0.105405 -0.0548,0.162099 l 29.30049,30.97176 c 0.007,0.0188 0.17515,0.19496 0.17528,0.20561 -0.005,0.21854 0.10983,0.40125 0.25579,0.40503 0.14612,0.004 0.26007,0.23811 0.25288,0.52172 -0.007,0.28361 0.10357,0.59372 0.24737,0.68774 0.1438,0.0941 0.25137,0.58192 0.23868,1.08469 -0.0127,0.50278 0.0967,0.91756 0.2427,0.92128 0.14942,0.004 0.24702,0.75402 0.22262,1.71775 -0.0239,0.94111 -0.16501,1.78239 -0.31342,1.86901 -0.14847,0.0867 -0.27901,0.5092 -0.28988,0.93893 -0.0109,0.42972 -0.13952,0.77788 -0.28568,0.77418 -0.14614,-0.004 -0.27018,0.21473 -0.27708,0.48493 -0.007,0.2637 -0.35925,0.88733 -0.82038,1.53818 -0.46114,0.65082 -1.03077,1.32887 -1.47345,1.69948 -0.18157,0.15197 -0.28827,0.26579 -0.3176,0.34241 -0.0293,0.0767 0.0185,0.11608 0.14102,0.11913 0.13456,0.003 0.19369,0.0349 0.17641,0.10706 -0.017,0.0722 -0.11109,0.18522 -0.28649,0.35244 -0.26057,0.24754 -0.68035,0.44548 -0.93277,0.44108 -0.27299,-0.006 -0.49863,0.23406 -0.55887,0.59071 -0.0548,0.3296 -0.20942,0.52823 -0.34344,0.44044 -0.13329,-0.0871 -0.24583,-0.0312 -0.24969,0.12354 -0.003,0.15477 -0.14577,0.24826 -0.31557,0.2074 -0.16981,-0.0407 -0.47417,0.21957 -0.67532,0.58008 -0.20186,0.36039 -0.36651,0.56006 -0.36527,0.44403 9.6e-4,-0.11626 -0.31145,0.0858 -0.69415,0.44971 -0.38432,0.36556 -0.6146,0.80023 -0.51523,0.97088 0.11077,0.19026 0.0647,0.23409 -0.1196,0.11392 -0.1932,-0.12614 -0.59483,0.098 -0.92949,0.41391 -0.33487,0.31561 -0.60269,0.72297 -0.52931,0.96272 0.0675,0.22033 -0.005,0.28742 -0.18509,0.17018 -0.17067,-0.11128 -0.85262,0.33634 -1.60247,1.05239 -0.613,0.58555 -1.04263,0.96539 -1.48354,1.2747 -0.44028,0.30995 -0.89082,0.55041 -1.54688,0.85777 -0.29594,0.13875 -0.77936,0.36626 -1.07331,0.50502 -0.29394,0.13876 -0.99057,0.24101 -1.5478,0.22693 -0.55724,-0.0141 -1.14755,0.10206 -1.31373,0.26004 -0.21672,0.20704 -0.55024,0.20176 -1.18338,-0.017 -0.48423,-0.16777 -1.23853,-0.35471 -1.67563,-0.41495 -0.43709,-0.0603 -1.04417,-0.25607 -1.34931,-0.43527 -0.30519,-0.17918 -0.63202,-0.25247 -0.72668,-0.16248 -0.0944,0.0903 -0.16934,0.0231 -0.16501,-0.147 0.004,-0.17071 -0.1448,-0.31387 -0.33217,-0.31847 -0.18662,-0.005 -0.50597,-0.2513 -0.70912,-0.54886 -0.19207,-0.2814 -0.53843,-0.49315 -0.7954,-0.52376 z"
         style="fill:#8800aa;fill-rule:evenodd;stroke:none;stroke-width:0.66438133" />
      <path
         inkscape:connector-curvature="0"
         id="path1070-7-9-2-0-2-3-7"
         d="m 175.24772,158.56072 c 0.23318,0.50901 0.18401,4.67554 -0.0885,4.81087 -0.10797,0.0537 -0.0477,0.25096 0.13365,0.43793 0.18056,0.18681 0.27663,0.62959 0.21338,0.98429 -0.0633,0.35466 -0.009,0.75432 0.12216,0.88834 0.13026,0.13469 0.13663,0.34109 0.0142,0.45996 -0.12115,0.11929 -0.11565,0.21839 0.0149,0.22045 0.13069,0.002 0.31264,0.28323 0.4052,0.62474 0.0924,0.34157 0.38888,0.90637 0.65883,1.25541 0.26992,0.34904 0.67777,1.01054 0.9061,1.46933 0.299,0.5994 0.53348,0.83592 0.83317,0.84056 0.22921,0.003 0.73214,0.33376 1.12018,0.73394 0.38807,0.40017 0.95713,0.81477 1.26413,0.92151 0.30705,0.10658 0.81153,0.28259 1.11997,0.3907 1.3674,0.47958 1.96152,0.57671 3.65686,0.59853 1.03675,0.0137 1.83712,0.17135 1.88104,0.3703 0.0461,0.20885 0.14527,0.21214 0.25132,0.008 0.23094,-0.4442 1.90617,-0.41253 2.00542,0.0386 0.0474,0.21496 0.11113,0.21593 0.16514,0.002 0.0484,-0.19146 0.51724,-0.34026 1.04759,-0.3326 0.52796,0.009 0.89259,0.0825 0.81051,0.16478 -0.0821,0.0824 0.17533,0.0552 0.57169,-0.0613 0.396,-0.11659 0.79569,-0.0894 0.8883,0.0585 0.0927,0.148 0.25931,0.18054 0.37054,0.0728 0.11049,-0.10842 0.23054,-0.0689 0.26481,0.0868 0.0343,0.15656 0.28365,0.12291 0.55358,-0.0741 0.29275,-0.2125 0.62155,-0.22577 0.81261,-0.0307 0.17675,0.18027 0.61552,0.332 0.97486,0.33799 0.48477,0.008 0.5876,-0.0578 0.40031,-0.25079 -0.17084,-0.17587 -0.0228,-0.24333 0.44914,-0.20599 1.15112,0.0904 3.52581,-0.33898 3.90451,-0.70625 0.19421,-0.18811 0.4356,-0.25725 0.53733,-0.15233 0.1016,0.10521 0.43739,-0.0536 0.74599,-0.35284 0.30852,-0.29929 0.69768,-0.50959 0.86429,-0.46756 0.16664,0.0421 0.85636,-0.45991 1.53219,-1.11527 0.692,-0.67119 1.14755,-1.27517 1.04352,-1.38249 -0.10156,-0.10516 0.11053,-0.4777 0.47154,-0.82786 0.36102,-0.35014 0.62581,-0.77381 0.58888,-0.94167 -0.037,-0.16778 0.10106,-0.46679 0.30478,-0.66428 0.20355,-0.19764 0.28617,-0.44483 0.18464,-0.54962 -0.10155,-0.10515 -0.0563,-0.31611 0.10086,-0.46828 0.008,-0.008 0.0113,-0.25063 0.0188,-0.26949 l 0.85349,-48.0083 c -0.0484,0.0344 -0.10521,0.0445 -0.15261,0.0774 l -0.75781,42.62857 c -0.008,0.0183 -0.0114,0.26183 -0.0188,0.26953 -0.15656,0.15256 -0.20246,0.36342 -0.10088,0.46829 0.10155,0.10515 0.019,0.3521 -0.18464,0.54959 -0.20354,0.19763 -0.34167,0.49648 -0.30479,0.66429 0.0368,0.16786 -0.22787,0.59152 -0.58889,0.94167 -0.36103,0.35014 -0.57327,0.72292 -0.47162,0.82779 0.10391,0.10745 -0.35144,0.71137 -1.04351,1.38249 -0.67588,0.65532 -1.36558,1.1573 -1.5322,1.11526 -0.16671,-0.042 -0.5557,0.16831 -0.86429,0.46757 -0.3086,0.29924 -0.64418,0.45782 -0.74596,0.35286 -0.10156,-0.10516 -0.34326,-0.0358 -0.53734,0.15232 -0.18959,0.18341 -0.8777,0.38216 -1.66262,0.52413 -0.7849,0.14194 -1.66634,0.22737 -2.2419,0.18213 -0.23604,-0.0186 -0.39192,-0.012 -0.4665,0.0222 -0.0746,0.0343 -0.068,0.0958 0.0173,0.18379 0.094,0.0963 0.11388,0.16051 0.051,0.19994 -0.0627,0.0397 -0.20899,0.0545 -0.45131,0.0511 -0.35936,-0.006 -0.79769,-0.15815 -0.97487,-0.338 -0.19074,-0.19539 -0.51992,-0.18192 -0.81261,0.0306 -0.26986,0.19701 -0.51933,0.23061 -0.55358,0.0741 -0.0342,-0.15551 -0.1537,-0.19437 -0.26478,-0.0866 -0.11049,0.10842 -0.27789,0.0752 -0.37054,-0.0728 -0.0928,-0.14794 -0.49232,-0.17514 -0.88833,-0.0585 -0.39643,0.11604 -0.65379,0.14337 -0.57168,0.0614 0.0821,-0.0823 -0.28247,-0.15676 -0.81051,-0.16479 -0.53035,-0.008 -0.99908,0.1412 -1.04758,0.33262 -0.0541,0.21341 -0.11767,0.21246 -0.16516,-0.002 -0.0497,-0.22532 -0.49337,-0.34642 -0.9535,-0.3551 -0.46007,-0.009 -0.93649,0.0944 -1.05193,0.31694 -0.10603,0.20459 -0.20477,0.20175 -0.2513,-0.008 -0.044,-0.19894 -0.84431,-0.35669 -1.88105,-0.37028 -0.84765,-0.011 -1.42036,-0.0405 -1.95174,-0.12826 -0.53138,-0.0869 -1.02145,-0.23056 -1.70511,-0.47034 -0.30846,-0.10809 -0.81294,-0.28404 -1.11999,-0.39072 -0.30704,-0.10668 -0.87608,-0.52133 -1.26415,-0.92147 -0.38805,-0.40016 -0.89091,-0.73045 -1.12018,-0.73397 -0.29969,-0.004 -0.53417,-0.24111 -0.83315,-0.84055 -0.22835,-0.45878 -0.63613,-1.12032 -0.9061,-1.46932 -0.26991,-0.34904 -0.56639,-0.91382 -0.65884,-1.2554 -0.0925,-0.3416 -0.27459,-0.62273 -0.40518,-0.62473 -0.13063,-0.002 -0.1371,-0.10205 -0.0149,-0.22049 0.12236,-0.1191 0.11632,-0.3255 -0.0143,-0.45995 -0.12977,-0.13421 -0.1854,-0.53366 -0.12217,-0.88836 0.0598,-0.3354 -0.0393,-0.72908 -0.20134,-0.93083 z"
         style="fill:#d40055;fill-rule:evenodd;stroke:none;stroke-width:0.66438133" />
    </g>
  </g>
  <g
     id="g22"
     transform="matrix(0.92371039,0,0,1.1299109,11.810378,-47.01242)">
    <text
       transform="scale(0.97065102,1.0302364)"
       id="text12"
       y="118.33587"
       x="46.014584"
       style="font-style:normal;font-variant:normal;font-weight:normal;font-stretch:normal;font-size:42.84057999px;line-height:1.25;font-family:'Coca Cola ii';-inkscape-font-specification:'Coca Cola ii';letter-spacing:0px;word-spacing:0px;fill:#000000;fill-opacity:1;stroke:none;stroke-width:1.07101452"
       xml:space="preserve"><tspan
         style="font-style:normal;font-variant:normal;font-weight:normal;font-stretch:normal;font-family:'Coca Cola ii';-inkscape-font-specification:'Coca Cola ii';stroke-width:1.07101452"
         y="118.33587"
         x="46.014584"
         id="tspan10"
         sodipodi:role="line">ignati</tspan></text>
    <text
       transform="matrix(1.100315,-2.3786649e-4,1.9647949e-4,0.90883062,0,0)"
       id="text16"
       y="134.18233"
       x="23.715425"
       style="font-style:normal;font-variant:normal;font-weight:normal;font-stretch:normal;font-size:30.57700348px;line-height:1.25;font-family:Z003;-inkscape-font-specification:Z003;letter-spacing:0px;word-spacing:0px;fill:#000000;fill-opacity:1;stroke:none;stroke-width:0.76442504"
       xml:space="preserve"><tspan
         style="font-style:normal;font-variant:normal;font-weight:normal;font-stretch:normal;font-family:Z003;-inkscape-font-specification:Z003;stroke-width:0.76442504"
         y="134.18233"
         x="23.715425"
         id="tspan14"
         sodipodi:role="line">S</tspan></text>
  </g>
</svg>
