<?xml version="1.0" encoding="UTF-8" standalone="no"?>
<svg
   xmlns:dc="http://purl.org/dc/elements/1.1/"
   xmlns:cc="http://creativecommons.org/ns#"
   xmlns:rdf="http://www.w3.org/1999/02/22-rdf-syntax-ns#"
   xmlns:svg="http://www.w3.org/2000/svg"
   xmlns="http://www.w3.org/2000/svg"
   xmlns:sodipodi="http://sodipodi.sourceforge.net/DTD/sodipodi-0.dtd"
   xmlns:inkscape="http://www.inkscape.org/namespaces/inkscape"
   id="svg"
   version="1.1"
   width="3361.7229"
   height="3365.9907"
   viewBox="0 0 3361.723 3365.9908"
   sodipodi:docname="signati.svg"
   inkscape:version="0.92.4 5da689c313, 2019-01-14"
   inkscape:export-filename="/home/misael/Documentos/misproyectos/signati/signati-core/signati.svg.png"
   inkscape:export-xdpi="96"
   inkscape:export-ydpi="96">
  <metadata
     id="metadata116">
    <rdf:RDF>
      <cc:Work
         rdf:about="">
        <dc:format>image/svg+xml</dc:format>
        <dc:type
           rdf:resource="http://purl.org/dc/dcmitype/StillImage" />
      </cc:Work>
    </rdf:RDF>
  </metadata>
  <defs
     id="defs114" />
  <sodipodi:namedview
     pagecolor="#ffffff"
     bordercolor="#666666"
     borderopacity="1"
     objecttolerance="10"
     gridtolerance="10"
     guidetolerance="10"
     inkscape:pageopacity="0"
     inkscape:pageshadow="2"
     inkscape:window-width="1366"
     inkscape:window-height="692"
     id="namedview112"
     showgrid="false"
     showguides="false"
     inkscape:zoom="0.23739622"
     inkscape:cx="3358.9319"
     inkscape:cy="1654.3362"
     inkscape:window-x="0"
     inkscape:window-y="0"
     inkscape:window-maximized="1"
     inkscape:current-layer="g197" />
  <path
     inkscape:connector-curvature="0"
     id="path890"
     d="m 1902.4931,3130.1849 -0.5629,-0.5628 c 0,0.081 0.1049,0.1332 0.1049,0.2088 0,0.351 0.3924,0.071 0.458,0.353 z"
     style="fill:#165016;fill-rule:evenodd;stroke:none;stroke-width:6.70113659" />
  <g
     id="g197"
     transform="matrix(1.8362985,0,0,1.8362985,8.787947e-5,438.08617)">
    <path
       style="fill:#d40055;fill-rule:evenodd;stroke:none;stroke-width:6.70113659"
       d="m 637.54855,1440.359 c 2.35192,5.134 1.85598,47.1588 -0.89264,48.5237 -1.08901,0.5417 -0.48111,2.5313 1.34803,4.4171 1.82118,1.8842 2.79017,6.3503 2.15221,9.9279 -0.63846,3.5772 -0.0908,7.6082 1.23214,8.96 1.31384,1.3585 1.37809,3.4403 0.14323,4.6393 -1.22195,1.2032 -1.16648,2.2027 0.15029,2.2235 1.31817,0.02 3.15337,2.8567 4.08696,6.3013 0.93197,3.4452 3.92235,9.1419 6.64514,12.6624 2.72249,3.5205 6.83618,10.1926 9.13918,14.8201 3.0158,6.0457 5.38083,8.4313 8.40359,8.4781 2.31187,0.03 7.38457,3.3664 11.29845,7.4028 3.91418,4.0362 9.65388,8.218 12.75037,9.2946 3.09699,1.075 8.18532,2.8502 11.29633,3.9407 13.79198,4.8372 19.78444,5.8168 36.88412,6.0369 10.45695,0.1382 18.52971,1.7283 18.9727,3.735 0.46497,2.1065 1.46523,2.1397 2.53488,0.081 2.32933,-4.4804 19.22617,-4.1609 20.22723,0.3893 0.47809,2.1681 1.12089,2.1779 1.66565,0.02 0.48817,-1.9312 5.21703,-3.432 10.56628,-3.3547 5.32516,0.091 9.00292,0.8321 8.17504,1.662 -0.82809,0.8311 1.76842,0.5567 5.76622,-0.6183 3.99417,-1.176 8.02556,-0.9017 8.95965,0.59 0.93499,1.4928 2.61547,1.821 3.73737,0.7343 1.11443,-1.0935 2.32529,-0.6949 2.67094,0.8755 0.34596,1.5791 2.86098,1.2397 5.58357,-0.7474 2.95276,-2.1433 6.26913,-2.2772 8.19621,-0.3096 1.78275,1.8182 6.20831,3.3486 9.83271,3.409 4.88953,0.081 5.9267,-0.583 4.03764,-2.5295 -1.72314,-1.7739 -0.22997,-2.4543 4.53015,-2.0777 11.61052,0.9118 35.56231,-3.419 39.38199,-7.1234 1.95886,-1.8974 4.39358,-2.5947 5.41966,-1.5365 1.02477,1.0612 4.41164,-0.5406 7.52427,-3.5588 3.11181,-3.0187 7.03699,-5.1399 8.71747,-4.7159 1.68077,0.4246 8.63748,-4.6388 15.4541,-11.249 6.9797,-6.7698 11.57451,-12.8617 10.52523,-13.9442 -1.02436,-1.0606 1.11484,-4.8182 4.75609,-8.35 3.64135,-3.5316 6.31209,-7.8049 5.93961,-9.4979 -0.3732,-1.6923 1.01932,-4.7082 3.07409,-6.7001 2.05307,-1.9935 2.88639,-4.4867 1.86233,-5.5437 -1.02426,-1.0605 -0.56785,-3.1883 1.01731,-4.7232 0.0807,-0.081 0.11397,-2.5279 0.18962,-2.7181 l 8.60854,-484.2252 c -0.48818,0.3469 -1.06118,0.4488 -1.53927,0.7806 l -7.64348,429.9638 c -0.0807,0.1846 -0.11499,2.6409 -0.18963,2.7185 -1.5791,1.5388 -2.04206,3.6656 -1.0175,4.7233 1.02426,1.0606 0.19164,3.5514 -1.86233,5.5434 -2.05296,1.9933 -3.44618,5.0076 -3.0742,6.7002 0.37118,1.6931 -2.29836,5.9662 -5.93971,9.4979 -3.64145,3.5316 -5.78216,7.2916 -4.75689,8.3493 1.04806,1.0838 -3.54472,7.1751 -10.52514,13.9442 -6.81711,6.6098 -13.77362,11.6729 -15.4542,11.2489 -1.68148,-0.4237 -5.60494,1.6976 -8.71747,4.716 -3.11262,3.0182 -6.49738,4.6177 -7.52396,3.559 -1.02436,-1.0606 -3.46222,-0.361 -5.41976,1.5364 -1.91226,1.8499 -8.85273,3.8546 -16.76965,5.2865 -7.91673,1.4317 -16.80718,2.2933 -22.61244,1.837 -2.38076,-0.1876 -3.95301,-0.121 -4.70525,0.2239 -0.75243,0.346 -0.68586,0.9663 0.1745,1.8538 0.94811,0.9713 1.14862,1.6189 0.5144,2.0166 -0.63241,0.4005 -2.10794,0.5497 -4.55204,0.5155 -3.62461,-0.061 -8.04573,-1.5952 -9.83282,-3.4092 -1.92385,-1.9708 -5.24406,-1.8349 -8.19621,0.3086 -2.72188,1.9871 -5.23811,2.326 -5.58356,0.7474 -0.34495,-1.5685 -1.55026,-1.9604 -2.67065,-0.8734 -1.11443,1.0935 -2.80288,0.7584 -3.73737,-0.7343 -0.93601,-1.4922 -4.96568,-1.7665 -8.95995,-0.5901 -3.9985,1.1704 -6.5943,1.4461 -5.76612,0.6193 0.82808,-0.8301 -2.84907,-1.5811 -8.17503,-1.6621 -5.34926,-0.081 -10.077,1.4242 -10.56619,3.3549 -0.54567,2.1525 -1.18685,2.1429 -1.66585,-0.02 -0.50129,-2.2726 -4.97627,-3.4941 -9.61727,-3.5816 -4.64039,-0.091 -9.4457,0.9521 -10.61006,3.1967 -1.06945,2.0636 -2.06537,2.0349 -2.53468,-0.081 -0.4438,-2.0065 -8.51595,-3.5976 -18.9728,-3.7347 -8.54964,-0.1109 -14.32615,-0.4085 -19.6858,-1.2937 -5.35965,-0.8765 -10.30263,-2.3255 -17.19822,-4.7439 -3.11121,-1.0903 -8.19954,-2.865 -11.29653,-3.941 -3.09689,-1.076 -8.83639,-5.2582 -12.75057,-9.2942 -3.91398,-4.0361 -8.98597,-7.3675 -11.29845,-7.403 -3.02276,-0.04 -5.38779,-2.4319 -8.40339,-8.478 -2.3032,-4.6274 -6.41618,-11.2999 -9.13918,-14.82 -2.72239,-3.5205 -5.71277,-9.217 -6.64524,-12.6623 -0.93298,-3.4455 -2.76959,-6.281 -4.08676,-6.3012 -1.31757,-0.02 -1.38283,-1.0293 -0.15029,-2.2239 1.23416,-1.2013 1.17324,-3.2831 -0.14423,-4.6392 -1.3089,-1.3537 -1.87,-5.3827 -1.23224,-8.9603 0.60316,-3.3829 -0.39639,-7.3537 -2.03077,-9.3886 z"
       id="path1070-7-9-2-0-2-3-7"
       inkscape:connector-curvature="0" />
    <g
       id="g175">
      <path
         inkscape:connector-curvature="0"
         id="path1070"
         d="m 224.23101,1139.1131 c -1.88573,5.3229 -31.49734,35.1473 -34.42186,34.2124 -1.15931,-0.3682 -2.10722,1.4829 -2.10722,4.1096 0,2.6201 -2.41768,6.5009 -5.3661,8.6252 -2.94853,2.1242 -5.3531,5.4072 -5.3531,7.2901 0,1.8897 -1.40582,3.4291 -3.12805,3.4291 -1.71548,0 -2.37109,0.7696 -1.43962,1.7015 0.93197,0.9319 0.27636,4.2459 -1.45283,7.3686 -1.72889,3.1227 -3.54835,9.2936 -4.04429,13.7163 -0.49625,4.4228 -2.18822,12.0762 -3.75624,17.0016 -2.04388,6.4398 -2.00656,9.7987 0.13113,11.9364 1.63508,1.6351 2.9579,7.5575 2.9579,13.1798 0,5.6222 1.20884,12.6203 2.68305,15.5487 1.47411,2.9284 3.89189,7.7446 5.3662,10.6931 6.53359,13.0738 10.15356,17.949 22.27596,30.011 7.4114,7.378 12.0991,14.1402 11.02027,15.8891 -1.13249,1.8361 -0.43774,2.5564 1.76692,1.8193 4.79128,-1.5949 16.69894,10.3973 14.25302,14.3577 -1.16597,1.8897 -0.71209,2.3439 1.17788,1.1779 1.6954,-1.0453 6.13467,1.1679 9.92086,4.9473 3.76602,3.766 5.88444,6.8642 4.71171,6.8844 -1.17274,0.02 0.88255,1.6298 4.56777,3.5731 3.68563,1.9366 6.38916,4.9396 6.0206,6.6619 -0.36815,1.7221 0.61123,3.1279 2.17259,3.1279 1.56135,0 2.15322,1.1198 1.30879,2.4869 -0.85128,1.3736 1.1914,2.8814 4.52854,3.3506 3.6119,0.5164 6.08566,2.7297 6.09908,5.4839 0.0202,2.5463 2.12578,6.726 4.68558,9.2926 3.45788,3.4577 4.65935,3.7086 4.65935,0.9945 0,-2.4728 1.5424,-1.923 4.6987,1.6621 7.69956,8.7383 27.91015,22.3023 33.23087,22.3023 2.72733,0 4.96033,1.1957 4.96033,2.6699 0,1.4743 3.54341,2.6831 7.8791,2.6831 4.33559,0 8.62992,1.2089 9.54122,2.683 0.9118,1.4743 9.43006,2.6832 18.92549,2.6832 9.72338,0 17.26317,-1.1755 17.26328,-2.6832 0,-1.4743 4.15433,-2.683 9.22713,-2.683 5.07279,0 9.96484,-1.2088 10.87634,-2.6831 0.91079,-1.4742 4.0098,-2.6699 6.87128,-2.6699 2.86137,0 5.19594,-1.2089 5.19594,-2.6831 0,-1.4742 1.81342,-2.6831 4.01807,-2.6831 0.11095,0 1.83883,-1.7383 2.02866,-1.8192 l 343.27618,-341.6272 c -0.59004,-0.091 -1.07419,-0.4155 -1.6491,-0.5103 l -304.81004,303.3441 c -0.18962,0.081 -1.9175,1.8193 -2.02875,1.8193 -2.20466,0 -4.01807,1.2089 -4.01807,2.6831 0,1.4742 -2.33457,2.683 -5.19595,2.683 -2.86138,0 -5.95999,1.1957 -6.87128,2.6701 -0.9118,1.4742 -5.80355,2.683 -10.87624,2.683 -5.07279,0 -9.22713,1.2086 -9.22713,2.6831 -10e-5,1.5077 -7.54,2.683 -17.26328,2.683 -9.49552,0 -18.01419,-1.2087 -18.92549,-2.683 -0.9118,-1.4743 -5.20563,-2.6831 -9.54132,-2.6831 -4.33559,0 -7.879,-1.2088 -7.879,-2.683 -10e-5,-1.4744 -2.2331,-2.6701 -4.96043,-2.6701 -2.66036,0 -9.03872,-3.3957 -15.71887,-7.879 -6.68024,-4.4832 -13.66217,-10.054 -17.512,-14.4232 -1.5781,-1.7925 -2.75365,-2.8384 -3.53373,-3.1149 -0.78068,-0.2764 -1.16486,0.2168 -1.16486,1.4527 0,1.357 -0.30158,1.9619 -1.03405,1.8062 -0.73226,-0.1554 -1.89642,-1.072 -3.62531,-2.8009 -2.5599,-2.5665 -4.66551,-6.7461 -4.68558,-9.2925 -0.0101,-2.7541 -2.48718,-4.968 -6.09918,-5.484 -3.33714,-0.469 -5.37951,-1.9768 -4.52843,-3.3506 0.84422,-1.367 0.25215,-2.4867 -1.3088,-2.4867 -1.56156,-10e-5 -2.54124,-1.4059 -2.17268,-3.1281 0.36815,-1.7221 -2.33488,-4.7252 -6.02051,-6.6619 -3.68562,-1.9432 -5.7405,-3.553 -4.56777,-3.573 1.17263,-0.02 -0.94609,-3.1183 -4.7117,-6.8843 -3.78619,-3.7795 -8.22547,-5.9928 -9.92087,-4.9474 -1.88977,1.166 -2.34395,0.7121 -1.17788,-1.1779 1.22286,-1.9802 -1.14075,-5.9727 -4.41083,-9.2665 -3.26997,-3.2937 -7.4466,-5.8887 -9.84229,-5.0912 -2.20446,0.7373 -2.8994,0.02 -1.76692,-1.8193 1.07893,-1.749 -3.60887,-8.5111 -11.02017,-15.889 -6.06125,-6.031 -9.9951,-10.2718 -13.23219,-14.6326 -3.23699,-4.3608 -5.77712,-8.8416 -9.04386,-15.3786 -1.47431,-2.9485 -3.892,-7.7646 -5.36621,-10.693 -1.47421,-2.9284 -2.68305,-9.9264 -2.68305,-15.5487 0,-5.6222 -1.32281,-11.5447 -2.9579,-13.1798 -2.13749,-2.1377 -2.1747,-5.4966 -0.13112,-11.9364 1.56801,-4.9253 3.26039,-12.5788 3.75633,-17.0015 0.49625,-4.4228 2.31531,-10.5936 4.0442,-13.7164 1.72888,-3.1227 2.38419,-6.4371 1.45282,-7.3686 -0.93197,-0.931 -0.27535,-1.7015 1.43972,-1.7015 1.72213,0 3.12796,-1.5394 3.12796,-3.4291 0,-1.883 2.40457,-5.1659 5.35309,-7.2901 2.78805,-2.0088 4.83496,-5.5552 5.07824,-8.1539 z"
         style="fill:#800000;fill-rule:evenodd;stroke:none;stroke-width:6.70113659" />
      <path
         inkscape:connector-curvature="0"
         id="path1114"
         d="m 1354.04,1120.2662 c 0.071,0.4811 -0.1089,1.2372 0.091,1.5835 0.4287,0.7424 1.3798,0.9562 2.4082,1.0995 -0.9229,-0.8603 -0.8311,-1.8117 -2.1726,-2.4213 -0.1785,-0.081 -0.1533,-0.1765 -0.3268,-0.2622 z"
         style="fill:#165016;fill-rule:evenodd;stroke:none;stroke-width:6.70113659" />
      <path
         inkscape:connector-curvature="0"
         id="path1112"
         d="m 1346.2395,1113.0415 c 0.239,0.5265 0.9027,0.1281 0.9027,0.9683 0,1.826 0.1866,2.7981 0.7726,2.9841 0.2391,0.081 0.8987,-0.5265 1.2827,-0.7071 -0.1049,-0.2087 -0.8634,-0.5345 -0.8634,-0.707 0,-1.2129 1.2089,-1.4621 2.6832,-0.5497 0.3379,0.2088 0.122,-0.091 0.3923,0.05 0.5951,-0.4559 0.9169,-0.5456 1.2565,-0.6677 -0.6809,-0.9905 -1.5472,-2.1544 -3.5076,-3.7432 -3.0826,-2.4996 -3.88,-2.6062 -2.513,-0.3268 0.8896,1.4824 0.3389,2.2578 -0.4055,2.6961 z"
         style="fill:#165016;fill-rule:evenodd;stroke:none;stroke-width:6.70113659" />
      <path
         inkscape:connector-curvature="0"
         id="path1138"
         d="m 1091.9759,272.44153 c 3.1739,-2.40256 8.3571,-6.7847 18.5721,-16.93606 6.8387,-6.79602 7.9177,-8.84958 12.0804,-13.58547 z"
         style="fill:#165016;fill-rule:evenodd;stroke:none;stroke-width:6.70113659" />
      <path
         inkscape:connector-curvature="0"
         id="path1032"
         d="m 239.78698,473.93778 -0.39236,-0.41878 c -0.0403,0.0807 0.1513,0.22512 0.1049,0.30087 -0.117,0.18831 0.35705,-0.0403 0.28847,0.11791 z"
         style="fill:#165016;fill-rule:evenodd;stroke:none;stroke-width:6.70113659" />
      <path
         inkscape:connector-curvature="0"
         id="path1030"
         d="m 276.45999,512.75726 c 0.80186,-1.58193 -0.0403,-4.18506 -2.13335,-5.95516 -2.16512,-1.82794 -3.97177,-2.27189 -3.99185,-0.9816 -0.0202,1.29031 -1.58031,-0.68829 -3.49449,-4.38455 -1.90792,-3.69621 -4.87389,-6.41634 -6.5703,-6.0467 -1.69641,0.36986 -3.08883,-1.1459 -3.08883,-3.36364 0,-2.21781 -1.48288,-3.72021 -3.29821,-3.35057 -0.53457,0.10853 -0.43169,-0.49523 -0.85027,-0.58903 l -8.97851,-9.58056 c -0.0706,0.0403 -0.0706,0.10389 -0.13112,0.14413 l 6.29545,6.6226 c 1.44022,1.4067 2.51219,1.91049 3.58618,3.74319 z"
         style="fill:#165016;fill-rule:evenodd;stroke:none;stroke-width:6.70113659" />
      <path
         inkscape:connector-curvature="0"
         id="path1028"
         d="m 281.067,517.58677 c 1.25262,-0.82616 2.513,-1.84301 2.513,-2.84014 0,-1.31047 -1.98165,-1.61505 -4.39762,-0.66741 -2.53297,0.99027 -3.17758,0.41283 -2.46055,-1.04706 z"
         style="fill:#165016;fill-rule:evenodd;stroke:none;stroke-width:6.70113659" />
      <path
         inkscape:connector-curvature="0"
         id="path1070-7"
         d="m 149.89371,636.01331 c -5.07552,2.47582 -47.10011,3.0009 -48.53125,0.28443 -0.56887,-1.07504 -2.542352,-0.41888 -4.383199,1.4551 -1.836107,1.86915 -6.280526,2.94339 -9.872452,2.39263 -3.591826,-0.55081 -7.607981,0.10621 -8.927468,1.44933 -1.324329,1.34814 -3.405936,1.46111 -4.634546,0.25417 -1.223667,-1.20215 -2.230682,-1.11259 -2.219284,0.20465 0.02017,1.31796 -2.778266,3.22264 -6.200138,4.23856 -3.42167,1.01618 -9.044166,4.1433 -12.497305,6.95085 -3.453341,2.80735 -10.023747,7.08151 -14.59384,9.49632 -5.970877,3.16174 -8.298186,5.58409 -8.271154,8.60712 0.02017,2.31222 -3.186156,7.46425 -7.126059,11.47508 -3.940004,4.01079 -7.981576,9.85021 -8.982136,12.9724 -0.99955,3.12206 -2.650775,8.25217 -3.6652532,11.38874 -4.5008012,13.90522 -5.3348357,19.91991 -5.1396662,37.01978 0.1159922,10.45707 -1.2778309,18.56608 -3.273099,19.05775 -2.09461802,0.51621 -2.10369567,1.51689 -0.020173,2.53602 4.5356997,2.21981 4.6265771,19.11949 0.1048973,20.23071 -2.15604341,0.53094 -2.15049595,1.17307 0.020173,1.66565 1.9420125,0.44228 3.5577339,5.13219 3.6102834,10.48162 0.040345,5.32578 -0.6132459,9.0205 -1.4631159,8.21305 -0.8502735,-0.80741 -0.5133917,1.78115 0.7584883,5.74947 1.2725861,3.96434 1.0962779,8.00125 -0.3731924,8.97157 -1.4694703,0.9705 -1.7559206,2.65975 -0.6424961,3.75392 1.1141306,1.09415 0.7514279,2.30777 -0.8099284,2.69126 -1.5699296,0.38338 -1.1693025,2.89048 0.8825496,5.56376 2.2146448,2.89954 2.4285748,6.21207 0.5083486,8.18632 -1.7699406,1.83065 -3.19684676,6.28796 -3.16931122,9.91269 0.0403451,4.88993 0.72722082,5.91066 2.62697192,3.9746 1.7329239,-1.76389 2.4479404,-0.29049 2.1871091,4.47861 -0.6303925,11.62928 4.2816262,35.46871 8.0775982,39.19741 1.945543,1.91114 2.700602,4.32903 1.667565,5.38072 -1.033138,1.0521 0.647539,4.39722 3.740598,7.43541 3.092857,3.03839 5.309217,6.91011 4.92624,8.60047 -0.383278,1.69066 4.846862,8.5224 11.620909,15.17652 6.936436,6.81399 13.138793,11.25902 14.195533,10.18352 1.033138,-1.052 4.843936,0.99753 8.462793,4.55224 3.618756,3.55491 7.955655,6.12076 9.639055,5.70772 1.682896,-0.41353 4.731576,0.90474 6.772938,2.9105 2.041262,2.00525 4.553855,2.77897 5.586993,1.72728 1.033037,-1.052 3.17385,-0.64452 4.746604,0.90171 0.08069,0.0807 2.529942,0.0504 2.721984,0.12305 l 484.290965,-3.15156 c -0.35806,-0.47809 -0.47506,-1.04917 -0.818,-1.5197 l -430.02203,2.79713 c -0.19164,-0.0706 -2.64281,-0.0504 -2.72219,-0.12305 -1.57285,-1.54492 -3.71356,-1.95331 -4.7466,-0.90272 -1.03304,1.0521 -3.54573,0.27737 -5.58699,-1.72718 -2.04106,-2.00525 -5.08974,-3.32363 -6.77294,-2.9106 -1.6836,0.41253 -6.0203,-2.15281 -9.63916,-5.70762 -3.61885,-3.55491 -7.42945,-5.60394 -8.46259,-4.55224 -1.05664,1.07519 -7.259094,-3.36963 -14.195632,-10.18362 -6.773845,-6.65422 -12.003784,-13.48616 -11.620807,-15.17642 0.383278,-1.69086 -1.833384,-5.56208 -4.926342,-8.60047 -3.093059,-3.03819 -4.773635,-6.38371 -3.740699,-7.43541 1.033138,-1.05199 0.277373,-3.46968 -1.667464,-5.38082 -1.897834,-1.86435 -4.068402,-8.75661 -5.692092,-16.63632 -1.623387,-7.8796 -2.700803,-16.74645 -2.385708,-22.56109 0.130113,-2.3846 0.02017,-3.95463 -0.33789,-4.69849 -0.363106,-0.74437 -0.983412,-0.66166 -1.849118,0.21988 -0.951136,0.96828 -1.590001,1.18826 -2.003337,0.56382 -0.414546,-0.62333 -0.601142,-2.09381 -0.626358,-4.53831 -0.03026,-3.6248 1.399169,-8.08202 3.169311,-9.91257 1.922748,-1.97185 1.707002,-5.28705 -0.508349,-8.18632 -2.052154,-2.67318 -2.452479,-5.18006 -0.882549,-5.5637 1.560146,-0.38358 1.922546,-1.59732 0.80892,-2.69119 -1.114131,-1.09434 -0.827075,-2.7837 0.642496,-3.75407 1.469369,-0.9705 1.645576,-5.00711 0.373192,-8.9715 -1.267139,-3.9691 -1.605635,-6.5574 -0.758488,-5.74947 0.850273,0.80741 1.51032,-2.88752 1.463116,-8.21299 -0.05043,-5.34951 -1.668574,-10.0393 -3.610485,-10.48169 -2.165121,-0.49251 -2.171173,-1.13459 -0.02017,-1.66572 2.260033,-0.55565 3.371642,-5.06023 3.347032,-9.70153 -0.02017,-4.6412 -1.181205,-9.41978 -3.453341,-10.52924 -2.089373,-1.01883 -2.082717,-2.01744 0.02017,-2.53601 1.995268,-0.49161 3.389798,-8.60069 3.272998,-19.05763 -0.100862,-8.54996 0.06052,-14.33202 0.814972,-19.7114 0.746385,-5.37932 2.074647,-10.35593 4.324997,-17.30849 1.014377,-3.13659 2.664896,-8.26656 3.665456,-11.38875 1.000559,-3.12214 5.042031,-8.96156 8.981934,-12.9724 3.940004,-4.01078 7.146634,-9.16274 7.126159,-11.47503 -0.03026,-3.02287 2.300378,-5.44517 8.271154,-8.6071 4.570094,-2.41483 11.140802,-6.6887 14.593842,-9.49625 3.45334,-2.80735 9.07543,-5.93481 12.4972,-6.95093 3.42167,-1.01608 6.21184,-2.92139 6.20014,-4.23855 -0.0202,-1.31725 0.99552,-1.40682 2.21949,-0.20465 1.2285,1.20683 3.31021,1.09385 4.63434,-0.25417 1.31959,-1.3433 5.33554,-2.00019 8.92767,-1.44934 3.39665,0.52075 7.34211,-0.57472 9.33667,-2.2581 z"
         style="fill:#d4aa00;fill-rule:evenodd;stroke:none;stroke-width:6.70113659" />
      <path
         inkscape:connector-curvature="0"
         id="path1070-7-9"
         d="m 462.58072,229.71543 c -5.21168,-2.17458 -33.36895,-33.37568 -32.27519,-36.24465 0.43169,-1.13732 -1.36487,-2.18531 -3.98801,-2.32919 -2.61618,-0.14353 -6.3588,-2.7703 -8.31836,-5.83062 -1.95926,-3.06029 -5.10578,-5.64118 -6.98576,-5.7444 -1.88704,-0.10359 -3.34703,-1.59156 -3.25262,-3.31125 0.0908,-1.71274 -0.63846,-2.40963 -1.61976,-1.53081 -0.97635,0.88578 -4.2547,0.0434 -7.27796,-1.85431 -3.02336,-1.89733 -9.08532,-4.05227 -13.47426,-4.78976 -4.38884,-0.73781 -11.93822,-2.84654 -16.77016,-4.682 -6.31814,-2.39358 -9.67415,-2.5404 -11.92571,-0.52297 -1.72244,1.54268 -7.70834,2.53932 -13.32216,2.23105 -5.61383,-0.30813 -12.66747,0.51562 -15.67237,1.82711 -3.0041,1.31218 -7.94607,3.46177 -10.97095,4.77234 -13.41213,5.80757 -18.47837,9.155 -31.18638,20.59837 -7.77349,6.99543 -14.78174,11.30622 -16.46908,10.13318 -1.77125,-1.23142 -2.52843,-0.57714 -1.9171,1.66026 1.32998,4.87147 -11.29653,16.10426 -15.11792,13.44394 -1.82289,-1.26779 -2.30129,-0.83938 -1.23708,1.11555 0.95113,1.75007 -1.50246,6.06134 -5.48351,9.63484 -3.97137,3.5487 -7.17689,5.49893 -7.13211,4.32749 0.0403,-1.17173 -1.67634,0.79137 -3.81514,4.36774 -2.13526,3.57433 -5.28228,6.10892 -6.98142,5.6468 -1.69943,-0.46205 -3.1568,0.43895 -3.24264,1.99768 -0.0807,1.55921 -1.23597,2.0887 -2.55536,1.16997 -1.32493,-0.92532 -2.94236,1.03177 -3.59374,4.33818 -0.7131,3.57808 -3.05896,5.92707 -5.80959,5.78982 -2.54356,-0.11932 -6.83235,1.75419 -9.53527,4.16951 -3.64428,3.26075 -3.95665,4.45072 -1.24828,4.59784 2.46902,0.13556 1.8353,1.64577 -1.9172,4.60063 -9.14654,7.20951 -23.79787,26.64626 -24.08927,31.95923 -0.14927,2.72312 -1.46563,4.88728 -2.93763,4.80657 -1.47239,-0.0807 -2.87317,3.39108 -3.1106,7.72019 -0.23703,4.32904 -1.67998,8.55076 -3.202,9.37997 -1.52232,0.8292 -3.19573,9.26878 -3.71578,18.75006 -0.53256,9.70881 0.22795,17.30149 1.73333,17.38428 1.47229,0.0807 2.45126,4.29536 2.17389,9.36036 -0.27838,5.06512 0.66065,10.01602 2.08363,11.00673 1.42216,0.99017 2.44663,4.14972 2.28948,7.00726 -0.15735,2.85718 0.92491,5.2541 2.39448,5.33526 1.4721,0.0807 2.58058,1.95683 2.45874,4.15902 -0.0101,0.11458 1.63357,1.93254 1.70599,2.12469 L 499.5775,759.7681 c 0.12306,-0.5847 0.47406,-1.04967 0.60115,-1.61812 L 213.98768,437.17949 c -0.0706,-0.19073 -1.70811,-2.01728 -1.70589,-2.12486 0.12104,-2.20139 -0.98744,-4.07821 -2.45823,-4.15965 -1.47229,-0.0807 -2.55061,-2.47856 -2.39438,-5.33522 0.15735,-2.857 -0.86742,-6.01666 -2.28948,-7.00732 -1.42197,-0.99139 -2.3611,-5.94169 -2.08363,-11.00677 0.27838,-5.06521 -0.70099,-9.27955 -2.17288,-9.36036 -1.50518,-0.0827 -2.26599,-7.67554 -1.73333,-17.38439 0.52045,-9.4812 2.19397,-17.92079 3.71588,-18.74993 1.52253,-0.8294 2.96426,-5.05087 3.20179,-9.38003 0.23703,-4.3291 1.63862,-7.80093 3.11051,-7.72028 1.4723,0.0807 2.78805,-2.08399 2.93783,-4.80657 0.14625,-2.65643 3.88584,-8.83912 8.72857,-15.26367 4.84273,-6.42427 10.78738,-13.09089 15.3606,-16.69572 1.87605,-1.47769 2.98201,-2.59744 3.30386,-3.35765 0.31873,-0.76434 -0.1523,-1.1755 -1.38666,-1.24289 -1.35519,-0.0746 -1.94242,-0.40859 -1.74674,-1.13144 0.19365,-0.72298 1.17475,-1.83453 2.9931,-3.46838 2.70121,-2.4174 6.99161,-4.28894 9.53517,-4.16942 2.75053,0.1407 5.0968,-2.2114 5.8097,-5.78983 0.65056,-3.30657 2.2685,-5.26324 3.59364,-4.33814 1.31868,0.91775 2.46922,0.38802 2.55475,-1.17067 0.0807,-1.55929 1.5432,-2.4599 3.24254,-1.99775 1.69933,0.46195 4.84605,-2.07257 6.98162,-5.64679 2.14243,-3.57338 3.86184,-5.53743 3.81493,-4.36772 -0.0403,1.17173 3.16548,-0.77382 7.13212,-4.32746 3.98266,-3.57195 6.43434,-7.88497 5.4834,-9.63503 -1.06057,-1.95074 -0.58299,-2.37936 1.23718,-1.11556 1.91014,1.32953 6.02615,-0.81185 9.49422,-3.89659 3.47079,-3.0813 6.29102,-7.10981 5.6228,-9.54846 -0.61526,-2.24155 0.13818,-2.89627 1.9172,-1.66026 1.68713,1.1731 8.69599,-3.13721 16.46888,-10.13317 6.35184,-5.72415 10.79908,-9.42286 15.33579,-12.41033 4.53146,-2.99348 9.14493,-5.2841 15.85079,-8.18787 3.02477,-1.31067 7.96624,-3.46068 10.97115,-4.7722 3.0048,-1.31148 10.05844,-2.13529 15.67226,-1.8273 5.61373,0.30814 11.59983,-0.68828 13.32217,-2.23104 2.24934,-2.01976 5.60746,-1.8704 11.92561,0.52297 4.83204,1.83545 12.38132,3.94462 16.77016,4.68203 4.38884,0.73782 10.4509,2.89219 13.47416,4.78965 3.02336,1.89739 6.29687,2.73327 7.27796,1.85432 0.97534,-0.88548 1.71386,-0.18246 1.61996,1.53096 -0.0908,1.71957 1.36628,3.20754 3.25252,3.31109 1.88008,0.10318 5.0264,2.68401 6.98596,5.74454 1.85305,2.89391 5.28198,5.13207 7.86336,5.51729 z"
         style="fill:#008000;fill-rule:evenodd;stroke:none;stroke-width:6.70113659" />
      <path
         inkscape:connector-curvature="0"
         id="path1070-7-9-2"
         d="m 960.48383,158.36204 c -2.24763,-5.18061 -0.90272,-47.18694 1.87383,-48.49588 1.09971,-0.52025 0.53155,-2.52105 -1.25857,-4.44355 -1.78577,-1.91742 -2.66126,-6.405251 -1.95129,-9.969148 0.71008,-3.563685 0.23602,-7.605035 -1.05079,-8.983043 -1.28791,-1.383061 -1.30819,-3.467583 -0.0504,-4.641303 1.25292,-1.171219 1.21076,-2.17902 -0.1059,-2.226184 -1.31778,-0.03833 -3.09589,-2.918838 -3.95867,-6.382518 -0.86237,-3.463487 -3.73686,-9.219496 -6.38804,-12.794104 -2.65098,-3.57476 -6.62871,-10.328806 -8.8379,-15.00175 -2.89295,-6.105599 -5.20947,-8.538369 -8.23071,-8.645829 -2.31077,-0.08271 -7.31518,-3.514988 -11.14665,-7.629605 -3.83158,-4.114517 -9.48545,-8.411757 -12.56005,-9.550246 -3.0745,-1.13744 -8.12601,-3.015142 -11.21443,-4.168146 C 881.91291,10.315901 875.94133,9.2151847 858.84972,8.6496066 848.39781,8.3003187 840.35885,6.547313 839.9564,4.5320942 c -0.42261,-2.1154764 -1.42176,-2.1690245 -2.53256,-0.1326346 -2.4195,4.4324465 -19.30635,3.7716337 -20.21543,-0.7948998 -0.43472,-2.1774969 -1.0762,-2.2005037 -1.66494,-0.053457 -0.52751,1.9205691 -5.28531,3.3259008 -10.63185,3.140525 -5.32223,-0.196279 -8.98425,-1.0138326 -8.13973,-1.8269382 0.8412,-0.8162827 -1.75673,-0.5920647 -5.77762,0.5019942 -4.01696,1.0950373 -8.042,0.7393244 -8.94593,-0.7718022 -0.90474,-1.5112981 -2.57916,-1.8725382 -3.72173,-0.8088189 -1.13925,1.0675724 -2.33891,0.6480436 -2.6526,-0.9288456 -0.31368,-1.5854423 -2.83565,-1.2966822 -5.59748,0.6341245 -2.99482,2.0838458 -6.31401,2.1499009 -8.20085,0.1438304 -1.75007,-1.8496222 -6.13952,-3.47335209 -9.76191,-3.60706592 -4.8869,-0.17701423 -5.93719,0.46366634 -4.08756,2.44757732 1.68521,1.8096301 0.18054,2.4584503 -4.57141,1.9857668 -11.58964,-1.1469816 -35.62404,2.6998453 -39.51785,6.3262058 -1.99577,1.85871 -4.44492,2.505432 -5.44951,1.426634 -1.0056,-1.079071 -4.42173,0.45126 -7.59457,3.406167 -3.17244,2.955059 -7.13937,4.996633 -8.81107,4.538817 -1.6718,-0.458018 -8.72948,4.463028 -15.67832,10.934426 -7.11557,6.626676 -11.83211,12.625119 -10.80483,13.728558 1.0046,1.07899 -1.21196,4.794786 -4.92382,8.252182 -3.71255,3.45679 -6.46873,7.675407 -6.13034,9.375934 0.3389,1.699609 -1.11423,4.686631 -3.20895,6.636743 -2.09441,1.949718 -2.97646,4.427302 -1.97378,5.504749 1.00459,1.078849 0.5033,3.199358 -1.11272,4.7017 -0.0807,0.07565 -0.16541,2.525141 -0.24409,2.713885 L 619.61373,565.95929 c 0.49423,-0.33598 1.06945,-0.42766 1.5551,-0.74911 l 16.33019,-429.7216 c 0.0807,-0.18629 0.16845,-2.63795 0.24409,-2.71394 1.61361,-1.50235 2.11621,-3.62334 1.11262,-4.70183 -1.00459,-1.07899 -0.12003,-3.55453 1.97399,-5.50464 2.09431,-1.9496 3.54674,-4.93691 3.20895,-6.63679 -0.33688,-1.70031 2.41849,-5.91857 6.13044,-9.37596 3.71266,-3.45685 5.92902,-7.172676 4.92452,-8.251484 -1.02738,-1.103248 3.68916,-7.101993 10.80483,-13.728639 6.94915,-6.471065 14.00672,-11.392071 15.67832,-10.934275 1.6722,0.458018 5.63813,-1.584191 8.81107,-4.538988 3.17244,-2.955098 6.58967,-4.484996 7.59437,-3.406308 1.00459,1.079 3.45404,0.431491 5.44961,-1.426493 1.94736,-1.812747 8.92898,-3.674926 16.87314,-4.946483 7.94396,-1.271356 16.84994,-1.9533 22.64481,-1.379905 2.37653,0.236019 3.94979,0.19638 4.70878,-0.1286 0.76051,-0.32972 0.70604,-0.952548 -0.13717,-1.857045 -0.92491,-0.993499 -1.11635,-1.64125 -0.47406,-2.026425 0.64048,-0.386708 2.11863,-0.50734 4.56162,-0.423826 3.62269,0.131425 8.01194,1.757293 9.76181,3.607056 1.88442,2.008542 5.20603,1.94051 8.20095,-0.143729 2.76143,-1.931563 5.284,-2.219648 5.59738,-0.634226 0.31369,1.575639 1.51022,1.991698 2.6526,0.927837 1.13934,-1.067653 2.8176,-0.70261 3.72173,0.808819 0.90474,1.511157 4.92907,1.866688 8.94613,0.771903 4.0215,-1.089399 6.62225,-1.312447 5.77742,-0.502095 -0.84119,0.816283 2.8175,1.637266 8.13983,1.826959 5.34654,0.187806 10.10363,-1.220319 10.63185,-3.140737 0.58904,-2.141015 1.22982,-2.118745 1.66504,0.05346 0.4549,2.282475 4.90516,3.593379 9.54304,3.775245 4.63747,0.185789 9.46295,-0.761111 10.67239,-2.981697 1.1108,-2.041806 2.10783,-1.991163 2.53267,0.132736 0.40244,2.015128 8.44141,3.768981 18.89312,4.117381 8.546,0.279088 14.31515,0.69787 19.65574,1.690844 5.34078,0.984925 10.25341,2.53325 17.09886,5.090536 3.08842,1.152872 8.13984,3.029919 11.21454,4.168388 3.0745,1.138428 8.72836,5.435628 12.56004,9.550054 3.83158,4.114436 8.83588,7.547059 11.14665,7.629605 3.02135,0.103889 5.33756,2.540311 8.23071,8.645759 2.2092,4.672993 6.18662,11.427303 8.8378,15.001763 2.65088,3.57477 5.52537,9.33044 6.38815,12.79396 0.86338,3.46355 2.6421,6.33561 3.95856,6.38252 1.31676,0.0383 1.36155,1.05689 0.10591,2.22644 -1.25776,1.17614 -1.23951,3.25863 0.0504,4.64112 1.28317,1.37795 1.76086,5.41921 1.05079,8.98327 -0.67175,3.37014 0.24812,7.36045 1.84064,9.42789 z"
         style="fill:#006680;fill-rule:evenodd;stroke:none;stroke-width:6.70113659" />
      <path
         inkscape:connector-curvature="0"
         id="path1070-7-9-2-0"
         d="m 1366.5768,460.06797 c 2.1273,-5.23115 33.0727,-33.66921 35.9508,-32.60207 1.1413,0.42141 2.1728,-1.38472 2.2931,-4.00885 0.12,-2.61747 2.7126,-6.38369 5.7552,-8.37081 3.0424,-1.9869 5.5972,-5.1539 5.6809,-7.03746 0.091,-1.88789 1.5613,-3.36125 3.2799,-3.2843 1.7135,0.0756 2.4038,-0.66025 1.516,-1.63368 -0.8947,-0.96808 -0.081,-4.2541 1.7884,-7.29446 1.8703,-3.03995 3.9699,-9.12155 4.6677,-13.51696 0.698,-4.39538 2.7384,-11.96349 4.5301,-16.81189 2.3363,-6.33945 2.4528,-9.69669 0.4155,-11.9299 -1.5581,-1.70841 -2.6089,-7.68507 -2.3515,-13.30147 0.2572,-5.61641 -0.6304,-12.66232 -1.9688,-15.65522 -1.3393,-2.9921 -3.5335,-7.9144 -4.8713,-10.92734 -5.9287,-13.35907 -9.3218,-18.39478 -20.8796,-30.99874 -7.0655,-7.71 -11.4395,-14.67892 -10.2817,-16.37675 1.2152,-1.78241 0.5538,-2.53355 -1.6777,-1.90178 -4.8593,1.37392 -16.2059,-11.15043 -13.5803,-14.99572 1.2511,-1.83446 0.819,-2.30877 -1.127,-1.22664 -1.741,0.96737 -6.0746,-1.4475 -9.6841,-5.39614 -3.5847,-3.93892 -5.5636,-7.12679 -4.3918,-7.09262 1.1719,0.0292 -0.8069,-1.66916 -4.4021,-3.7755 -3.5935,-2.10284 -6.1564,-5.22678 -5.7097,-6.93002 0.4469,-1.70394 -0.4669,-3.15275 -2.0269,-3.22441 -1.5598,-0.0666 -2.0998,-1.21709 -1.193,-2.54475 0.9128,-1.33365 -1.0584,-2.93294 -4.3704,-3.55435 -3.5844,-0.68072 -5.9546,-3.00531 -5.8423,-5.75702 0.1009,-2.54451 -1.8158,-6.81618 -4.2555,-9.49715 -3.2937,-3.61449 -4.4864,-3.91629 -4.609,-1.20668 -0.113,2.4702 -1.6296,1.84954 -4.6177,-1.87548 -7.292,-9.08093 -26.8605,-23.55589 -32.1758,-23.79918 -2.7244,-0.12466 -4.9005,-1.42145 -4.8329,-2.89401 0.071,-1.47349 -3.4169,-2.84252 -7.7482,-3.04078 -4.3309,-0.19789 -8.5655,-1.60251 -9.4084,-3.11698 -0.8433,-1.51468 -9.2974,-3.11175 -18.7829,-3.54604 -9.7132,-0.44471 -17.2987,0.38449 -17.3679,1.89049 -0.071,1.4727 -4.273,2.49001 -9.3404,2.25843 -5.0673,-0.23249 -10.0096,0.75133 -10.9874,2.18311 -0.9763,1.43157 -4.1274,2.48414 -6.9862,2.35275 -2.8585,-0.13142 -5.2455,0.97252 -5.3134,2.44275 -0.071,1.47259 -1.9329,2.5986 -4.1371,2.49575 -0.1109,-0.005 -1.9194,1.6491 -2.1092,1.725 L 836.87706,501.85503 c 0.58602,0.11791 1.05392,0.46457 1.62339,0.58652 L 1156.8694,213.35926 c 0.1896,-0.0726 2.0021,-1.72589 2.1093,-1.72504 2.2024,0.10116 4.0691,-1.02429 4.1371,-2.49592 0.071,-1.47271 2.4549,-2.57342 5.3134,-2.44253 2.8582,0.13143 6.0085,-0.92178 6.9863,-2.35277 0.9784,-1.43061 5.9201,-2.41472 10.9875,-2.18306 5.0675,0.23249 9.2727,-0.78491 9.3403,-2.25745 0.071,-1.50596 7.6547,-2.33535 17.368,-1.89054 9.4855,0.43472 17.9398,2.03177 18.7828,3.54614 0.8432,1.51497 5.0774,2.91847 9.4086,3.11687 4.331,0.1978 7.8154,1.56796 7.748,3.04052 -0.071,1.47271 2.1093,2.76913 4.833,2.89419 2.6577,0.12225 8.874,3.80581 15.342,8.59022 6.4678,4.7844 13.1879,10.66847 16.8339,15.20891 1.4947,1.86268 2.624,2.95868 3.3874,3.27337 0.7675,0.31247 1.1745,-0.16239 1.2304,-1.39767 0.061,-1.35595 0.3914,-1.94602 1.1156,-1.75683 0.7242,0.1868 1.8452,1.15822 3.4953,2.96165 2.4415,2.67958 4.3521,6.9526 4.2556,9.49707 -0.116,2.75171 2.2574,5.07664 5.8421,5.75716 3.3124,0.62061 5.2835,2.22078 4.3704,3.5542 -0.9057,1.32679 -0.3651,2.47263 1.1937,2.54404 1.5601,0.0666 2.4739,1.52082 2.0271,3.22442 -0.4459,1.70383 2.1163,4.82714 5.7097,6.93023 3.5926,2.11004 5.5721,3.81159 4.4021,3.77528 -1.1719,-0.0292 0.8018,3.15834 4.3917,7.09271 3.6077,3.95035 7.9429,6.36273 9.6843,5.396 1.9415,-1.07769 2.374,-0.60437 1.127,1.22671 -1.3119,1.92233 0.8664,6.01851 3.9823,9.45852 3.1129,3.44246 7.1664,6.22648 9.599,5.53626 2.2358,-0.63554 2.8974,0.11206 1.6777,1.90192 -1.1577,1.69776 3.2158,8.66727 10.2817,16.37651 5.7817,6.29953 9.5201,10.71339 12.5485,15.22299 3.0344,4.50411 5.3666,9.0967 8.3309,15.776 1.3381,3.01284 3.5325,7.93462 4.8713,10.92758 1.3385,2.99279 2.2261,10.03866 1.9689,15.65508 -0.2572,5.61634 0.7928,11.59317 2.3515,13.30147 2.0403,2.23079 1.9211,5.59037 -0.4155,11.92986 -1.7916,4.84844 -3.8325,12.41652 -4.5302,16.81183 -0.6979,4.39531 -2.7975,10.47667 -4.6675,13.51693 -1.8697,3.04071 -2.6763,6.32125 -1.7885,7.29441 0.8947,0.96737 0.1977,1.71218 -1.5162,1.63384 -1.7203,-0.0756 -3.195,1.39525 -3.2797,3.28418 -0.091,1.88092 -2.6385,5.05045 -5.6811,7.03761 -2.8773,1.87883 -5.0838,5.32854 -5.4459,7.91297 z"
         style="fill:#ff7f2a;fill-rule:evenodd;stroke:none;stroke-width:6.70113659" />
      <path
         sodipodi:nodetypes="cccccccccccccccccccccccc"
         inkscape:connector-curvature="0"
         id="path1070-7-9-2-0-2"
         d="m 1437.4102,958.77969 c 18.7052,-0.0101 37.8729,-0.79278 57.3192,-1.75068 17.2386,-1.38273 22.1598,-2.80146 32.0813,-5.78186 12.9428,-5.82361 27.204,-14.36528 36.0524,-24.05084 7.7681,-8.0664 13.1584,-14.47744 16.7888,-23.98527 6.9053,-17.13559 9.9093,-34.86404 10.1611,-48.14202 1.1135,-40.93913 3.4868,-74.43257 2.3024,-115.44811 -1.216,-28.7055 -8.4087,-55.94805 -27.8922,-76.60424 -13.1646,-11.92721 -32.8413,-24.73171 -48.6551,-27.36027 -162.2684,-3.79864 -324.6096,-7.14875 -486.9062,-10.65247 0.344,0.48888 0.4449,1.06256 0.7747,1.54222 l 429.9314,9.28117 c 20.211,1.72827 37.359,13.04876 51.3723,27.56079 8.6447,8.35997 15.6531,13.97055 19.1169,22.61031 6.5564,17.25623 10.1932,35.55699 8.7755,53.99389 -0.027,11.34755 -0.4255,25.11953 -0.4196,30.03413 0.3193,11.29769 -0.6217,25.06365 -0.7988,31.45114 -0.1594,18.53436 -0.7597,37.11015 -1.0742,53.96312 -0.1433,8.54923 -0.463,14.32453 -1.3686,19.68075 -2.1743,10.7933 -5.1677,18.1561 -8.7935,28.46137 -5.5551,13.73737 -16.0797,25.59198 -25.2985,32.35638 -13.2143,9.24297 -25.4008,16.86628 -38.8803,19.0892 -7.7057,1.10354 -23.8226,2.39267 -30.7319,3.75341 z"
         style="fill:#330080;fill-rule:evenodd;stroke:none;stroke-width:6.70113659" />
      <path
         inkscape:connector-curvature="0"
         id="path1070-7-9-2-0-2-3"
         d="m 1136.3274,1367.888 c 5.2736,2.0198 34.3384,32.3771 33.3308,35.2763 -0.3984,1.1492 1.4288,2.144 4.0548,2.2106 2.6195,0.071 6.4378,2.5815 8.4868,5.5829 2.0486,3.001 5.2646,5.4932 7.1522,5.5358 1.8892,0.05 3.3925,1.4921 3.3503,3.2124 -0.03,1.7146 0.7091,2.3895 1.6641,1.4823 0.9522,-0.9118 4.2517,-0.1675 7.3297,1.6388 3.0773,1.8078 9.2007,3.7824 13.6096,4.3903 4.4086,0.6082 12.0168,2.4931 16.9009,4.1853 6.3859,2.2062 9.7448,2.2541 11.936,0.1715 1.6731,-1.5958 7.63,-2.7655 13.2506,-2.623 5.6206,0.1422 12.6468,-0.8896 15.6116,-2.2885 2.9642,-1.4003 7.8405,-3.6946 10.8254,-5.0938 13.2351,-6.2006 18.2002,-9.6959 30.5653,-21.5093 7.5644,-7.2211 14.4419,-11.7373 16.1631,-10.6145 1.8066,1.1788 2.5442,0.5023 1.8669,-1.7166 -1.473,-4.83 10.8167,-16.4303 14.7167,-13.8819 1.8594,1.2135 2.3251,0.7706 1.2062,-1.149 -1.0035,-1.7205 1.323,-6.1029 5.197,-9.7925 3.8648,-3.6645 7.0116,-5.7081 7.0013,-4.5359 -0.01,1.1733 1.6528,-0.8402 3.685,-4.478 2.0291,-3.6358 5.0996,-6.2623 6.8114,-5.8506 1.7126,0.4116 3.1425,-0.5305 3.1828,-2.092 0.03,-1.561 1.1741,-2.1239 2.5201,-1.2447 1.3522,0.8856 2.9108,-1.1176 3.464,-4.4424 0.6082,-3.5976 2.8828,-6.0148 5.6362,-5.9588 2.546,0.051 6.7776,-1.9548 9.4081,-4.4488 3.5491,-3.3642 3.8239,-4.5655 1.1125,-4.6329 -2.4722,-0.061 -1.8825,-1.5914 1.7805,-4.655 8.9297,-7.4764 23.0018,-27.3365 23.1362,-32.6557 0.071,-2.7263 1.3211,-4.9286 2.7947,-4.8912 1.4747,0.04 2.7722,-3.4741 2.8818,-7.8087 0.1089,-4.334 1.427,-8.5965 2.9238,-9.4703 1.4973,-0.8735 2.9208,-9.359 3.1612,-18.8513 0.2451,-9.7204 -0.7384,-17.2872 -2.2453,-17.3257 -1.4741,-0.04 -2.5769,-4.2211 -2.4491,-9.2922 0.1281,-5.071 -0.9562,-9.9922 -2.4074,-10.9405 -1.4512,-0.9471 -2.5681,-4.0757 -2.4951,-6.9366 0.071,-2.8607 -1.0797,-5.2246 -2.5509,-5.2624 -1.4739,-0.04 -2.6376,-1.8792 -2.5799,-4.085 8e-4,-0.114 -1.688,-1.8854 -1.7675,-2.0738 L 1083.7207,839.15883 c -0.1059,0.58873 -0.4438,1.06314 -0.5527,1.63497 l 295.533,312.3899 c 0.071,0.1896 1.7666,1.9664 1.7679,2.0738 -0.05,2.2043 1.1078,4.0471 2.58,4.0853 1.4738,0.04 2.6231,2.4016 2.5506,5.2622 -0.071,2.8605 1.0446,5.9884 2.495,6.9367 1.4504,0.9491 2.5354,5.8694 2.4074,10.9405 -0.1281,5.0712 0.9754,9.2548 2.448,9.2923 1.5071,0.04 2.4915,7.6053 2.2454,17.3257 -0.2411,9.4923 -1.6644,17.9777 -3.1613,18.8514 -1.4975,0.8744 -2.8141,5.1359 -2.9238,9.4703 -0.1099,4.3343 -1.4072,7.8459 -2.8814,7.8086 -1.474,-0.04 -2.7251,2.1658 -2.7947,4.8911 -0.071,2.6598 -3.6235,8.9499 -8.2746,15.5145 -4.6512,6.5644 -10.3966,13.4034 -14.8616,17.1415 -1.8314,1.5328 -2.9076,2.6808 -3.2034,3.4536 -0.2956,0.7736 0.1866,1.1708 1.4223,1.2016 1.3572,0.03 1.9536,0.352 1.7793,1.0798 -0.1714,0.7282 -1.1204,1.8682 -2.8896,3.5548 -2.6282,2.4968 -6.8622,4.4933 -9.4082,4.4489 -2.7534,-0.061 -5.0293,2.3608 -5.6369,5.9581 -0.5527,3.3244 -2.1122,5.3278 -3.464,4.4424 -1.3444,-0.8786 -2.4795,-0.3147 -2.5185,1.246 -0.03,1.5611 -1.4702,2.504 -3.1829,2.0919 -1.7127,-0.4105 -4.7826,2.2147 -6.8114,5.8509 -2.0361,3.635 -3.6968,5.6489 -3.6843,4.4786 0.01,-1.1727 -3.1413,0.8654 -7.0014,4.5359 -3.8763,3.6871 -6.199,8.0713 -5.1967,9.7925 1.1172,1.9191 0.6526,2.3611 -1.2063,1.1491 -1.9487,-1.2723 -5.9997,0.9884 -9.3751,4.1748 -3.3776,3.1833 -6.0789,7.2921 -5.3388,9.7102 0.6808,2.2224 -0.05,2.899 -1.8669,1.7165 -1.7214,-1.1224 -8.5997,3.3924 -16.1629,10.6147 -6.1829,5.9061 -10.5163,9.7372 -14.9634,12.857 -4.4408,3.1263 -8.9851,5.5516 -15.6023,8.6517 -2.9849,1.3995 -7.8608,3.6942 -10.8257,5.0938 -2.9648,1.3996 -9.9912,2.4309 -15.6115,2.2889 -5.6205,-0.1422 -11.5746,1.0294 -13.2507,2.6228 -2.1859,2.0883 -5.5499,2.035 -11.9359,-0.1715 -4.8841,-1.6921 -12.4922,-3.5777 -16.9009,-4.1853 -4.4086,-0.6082 -10.5318,-2.5828 -13.6095,-4.3902 -3.0782,-1.8073 -6.3747,-2.5465 -7.3295,-1.6388 -0.9521,0.9108 -1.708,0.233 -1.6643,-1.4827 0.04,-1.7218 -1.4605,-3.1658 -3.3504,-3.2122 -1.8823,-0.05 -5.1033,-2.5347 -7.1524,-5.5359 -1.9372,-2.8383 -5.4307,-4.9741 -8.0226,-5.2828 z"
         style="fill:#8800aa;fill-rule:evenodd;stroke:none;stroke-width:6.70113659" />
      <g
         id="g22"
         transform="matrix(9.3168026,0,0,11.396599,119.12277,-474.18048)">
        <text
           transform="scale(0.97065102,1.0302364)"
           id="text12"
           y="118.33587"
           x="46.014584"
           style="font-style:normal;font-variant:normal;font-weight:normal;font-stretch:normal;font-size:42.84057999px;line-height:1.25;font-family:'Coca Cola ii';-inkscape-font-specification:'Coca Cola ii';letter-spacing:0px;word-spacing:0px;fill:#000000;fill-opacity:1;stroke:none;stroke-width:1.07101452"
           xml:space="preserve"><tspan
             style="font-style:normal;font-variant:normal;font-weight:normal;font-stretch:normal;font-family:'Coca Cola ii';-inkscape-font-specification:'Coca Cola ii';stroke-width:1.07101452"
             y="118.33587"
             x="46.014584"
             id="tspan10"
             sodipodi:role="line">ignati</tspan></text>
        <text
           transform="matrix(1.100315,-2.3786649e-4,1.9647949e-4,0.90883062,0,0)"
           id="text16"
           y="134.18233"
           x="23.715425"
           style="font-style:normal;font-variant:normal;font-weight:normal;font-stretch:normal;font-size:30.57700348px;line-height:1.25;font-family:Z003;-inkscape-font-specification:Z003;letter-spacing:0px;word-spacing:0px;fill:#000000;fill-opacity:1;stroke:none;stroke-width:0.76442504"
           xml:space="preserve"><tspan
             style="font-style:normal;font-variant:normal;font-weight:normal;font-stretch:normal;font-family:Z003;-inkscape-font-specification:Z003;stroke-width:0.76442504"
             y="134.18233"
             x="23.715425"
             id="tspan14"
             sodipodi:role="line">S</tspan></text>
      </g>
    </g>
  </g>
</svg>
